<svg xmlns="http://www.w3.org/2000/svg" width="92" height="92" viewBox="0 0 92 92"><defs><style>.a{fill:#8a8a8a;}.b{fill:#949494;}.c{fill:#fff;}</style></defs><path class="a" d="M2.2,91.8V86.1h.9l1.2,4,.2.8.3-.9,1.1-4h.8v5.8H6.1V87L4.7,91.8H4.2L2.8,86.9v4.9Z"/><path class="a" d="M9.2,91.8V86.1h.6v5.7Z"/><path class="a" d="M12.4,91.8V86.1H13l2.5,4.5V86.1h.6v5.7h-.6L13,87.3v4.5Z"/><path class="a" d="M18.7,91.8V86.1h.6v5.7Z"/><path class="a" d="M21.6,90l.6-.1a1.854,1.854,0,0,0,.2.7,1,1,0,0,0,.5.4,1.854,1.854,0,0,0,.7.2,1.4,1.4,0,0,0,.9-.3.908.908,0,0,0,.3-.7c0-.2,0-.3-.1-.4l-.3-.3c-.3-.1-.7-.2-1-.3a3.552,3.552,0,0,1-.9-.4,1,1,0,0,1-.4-.5,1.854,1.854,0,0,1-.2-.7,1.5,1.5,0,0,1,.4-1.1,1.746,1.746,0,0,1,1.2-.4,2.92,2.92,0,0,1,.9.2.9.9,0,0,1,.6.6,2.92,2.92,0,0,1,.2.9l-.6.1a1.032,1.032,0,0,0-1.1-1.1,1.884,1.884,0,0,0-.8.2.864.864,0,0,0-.3.6.764.764,0,0,0,.2.5,3.552,3.552,0,0,0,.9.4c.3.1.7.2,1,.3a.9.9,0,0,1,.6.6,2.125,2.125,0,0,1,0,1.8,1.724,1.724,0,0,1-.6.6,3.553,3.553,0,0,1-1,.2,2.389,2.389,0,0,1-1.4-.5A2.694,2.694,0,0,1,21.6,90Z"/><path class="a" d="M28.9,91.8V86.7H27.3V86H31v.7H29.4v5.1h-.5Z"/><path class="a" d="M33.1,91.8V86.1h2.1a3.553,3.553,0,0,1,1,.2,1.205,1.205,0,0,1,.5.5,2.92,2.92,0,0,1,.2.9,1.689,1.689,0,0,1-.3,1,1.389,1.389,0,0,1-1,.5,1.38,1.38,0,0,1,.4.3c.2.2.3.5.5.7l.8,1.6h-.8l-.6-1.2a4.053,4.053,0,0,0-.5-.9c-.1-.2-.2-.3-.4-.3a.749.749,0,0,0-.5-.1h-.7v2.5Zm.6-3.2H35a1.7,1.7,0,0,0,.7-.1,1.38,1.38,0,0,0,.4-.3,1.063,1.063,0,0,0-.2-1.2c-.2-.2-.4-.2-.8-.2H33.6l.1,1.8Z"/><path class="a" d="M40.5,91.8V89.4l-1.8-3.3h.8l.8,1.7c.2.3.3.7.5,1a4.671,4.671,0,0,1,.5-1l.9-1.7h.7L41,89.4v2.4Z"/><path class="a" d="M47.9,89a4.645,4.645,0,0,1,.6-2.3,2.088,2.088,0,0,1,1.6-.8,1.5,1.5,0,0,1,1.1.4,3.915,3.915,0,0,1,.8,1,4.146,4.146,0,0,1,.3,1.6,3.936,3.936,0,0,1-.6,2.1,2.062,2.062,0,0,1-2.9.5,1.205,1.205,0,0,1-.5-.5A6.465,6.465,0,0,1,47.9,89Zm.7,0a2.352,2.352,0,0,0,.5,1.6,1.308,1.308,0,0,0,2.2,0,3.371,3.371,0,0,0,.5-1.7,5.853,5.853,0,0,0-.2-1.3,1.344,1.344,0,0,0-.6-.7,1.136,1.136,0,0,0-.8-.3,1.425,1.425,0,0,0-1.2.6A3.922,3.922,0,0,0,48.6,89Z"/><path class="a" d="M54.7,91.8V86.1h3.2v.7H55.3v1.8h2.2v.7H55.3v2.5Z"/><path class="a" d="M64.5,91.8V86.7H63V86h3.7v.7H65.1v5.1h-.6Z"/><path class="a" d="M68.7,91.8V86.1h2.1a3.553,3.553,0,0,1,1,.2,1.205,1.205,0,0,1,.5.5,2.92,2.92,0,0,1,.2.9,1.689,1.689,0,0,1-.3,1,1.389,1.389,0,0,1-1,.5,1.38,1.38,0,0,1,.4.3c.2.2.3.5.5.7l.8,1.6h-.8l-.6-1.2a4.053,4.053,0,0,0-.5-.9c-.1-.2-.2-.3-.4-.3a.749.749,0,0,0-.5-.1h-.8v2.5Zm.6-3.2h1.3a1.7,1.7,0,0,0,.7-.1,1.38,1.38,0,0,0,.4-.3,1.063,1.063,0,0,0-.2-1.2c-.2-.2-.4-.2-.8-.2H69.3Z"/><path class="a" d="M74.4,91.8l1.8-5.7h.7l1.9,5.7h-.7l-.5-1.7h-2L75,91.8Zm1.3-2.4h1.6l-.5-1.6a2.663,2.663,0,0,1-.3-1.2c-.1.4-.2.7-.3,1.1Z"/><path class="a" d="M80.7,91.8V86.1h1.6a2.769,2.769,0,0,1,.9.1,1.794,1.794,0,0,1,.7.5,2.622,2.622,0,0,1,.5.9,5.853,5.853,0,0,1,.2,1.3,4.671,4.671,0,0,1-.3,1.7,2.286,2.286,0,0,1-.7,1,5.019,5.019,0,0,1-1.2.2Zm.6-.7h1a2.92,2.92,0,0,0,.9-.2,1.024,1.024,0,0,0,.5-.6,5,5,0,0,0,0-2.8c-.1-.3-.4-.5-.6-.7a2.2,2.2,0,0,0-.8-.1h-1Z"/><path class="a" d="M86.9,91.8V86.1h3.4v.7H87.5v1.8h2.6v.7H87.5v1.9h2.9v.6Z"/><rect class="b" width="92" height="81.8"/><path class="c" d="M27,14.6h-.5v4.2h-1V9.7h1v4.2l.5-.2,2.4-4.1h1.1l-2.4,3.9-.5.5.5.5,2.6,4.2H29.5Z"/><path class="c" d="M31.9,9.7h4v.9H32.8v3.1h2.8v.9H32.8v3.3h3.1v.9H31.8V9.7Z"/><path class="c" d="M43.2,12.8l.1-1.4h-.1l-.4,1.3-1.8,4h-.3l-1.9-4-.4-1.3h-.1l.2,1.4v6h-1V9.7h.8l2.2,4.5.3,1.1h0l.3-1.1,2.1-4.5h.9v9.1h-1v-6Z"/><path class="c" d="M45.8,9.7h4v.9H46.7v3.1h2.8v.9H46.7v3.3h3.1v.9H45.7Z"/><path class="c" d="M52.8,13l-.6-1.4h0l.1,1.4v5.8h-.9V9.5H52l3.4,5.9.5,1.4H56l-.1-1.4V9.7h.9v9.2h-.6Z"/><path class="c" d="M63.2,10.6H61v8.2H60V10.6H57.8V9.7h5.4Z"/><path class="c" d="M64.2,9.7h4v.9H65.1v3.1h2.8v.9H65.1v3.3h3.1v.9H64.1Z"/><path class="c" d="M69.8,9.8a2.769,2.769,0,0,1,.9-.1h.9a3.4,3.4,0,0,1,1,.1,2.01,2.01,0,0,1,.8.4,2.177,2.177,0,0,1,.5.8,5.019,5.019,0,0,1,.2,1.2,3.287,3.287,0,0,1-.4,1.7,2.73,2.73,0,0,1-1.2.9l.5.5,1.8,3.6H73.7l-2-4-1-.2v4.2h-1V9.8Zm.9,4.2h.8a1.656,1.656,0,0,0,1.2-.5,1.792,1.792,0,0,0,.4-1.4,1.746,1.746,0,0,0-.4-1.2,1.606,1.606,0,0,0-1.1-.5h-.5c-.2,0-.3,0-.4.1Z"/><path class="c" d="M76.2,9.7h1v9.1h-1Z"/><path class="c" d="M82.5,16.2H79.9l-.7,2.5h-1l2.7-9.2h.6l2.7,9.2h-1Zm-2.3-.8h2.1l-.8-2.8-.2-1.4h0L81,12.6Z"/><path class="c" d="M86.6,13,86,11.6h0l.1,1.4v5.8h-.9V9.5h.6l3.4,5.9.5,1.4h.1l-.1-1.4V9.7h.8v9.2h-.6Z"/><path class="c" d="M25.6,20.4c.3-.1.6-.1.9-.2h.9a3.4,3.4,0,0,1,1,.1,3.552,3.552,0,0,1,.9.4,1.6,1.6,0,0,1,.7.9,3.194,3.194,0,0,1,.3,1.4,6.753,6.753,0,0,1-.2,1.4l-.6.9a4.053,4.053,0,0,1-.9.5,4.253,4.253,0,0,1-1.1.2h-.9v3.5h-1C25.6,29.4,25.6,20.4,25.6,20.4Zm1.8.7h-.5c-.2,0-.3,0-.4.1V25h.8a1.7,1.7,0,0,0,.7-.1l.6-.3a1.612,1.612,0,0,0,.4-.7,3.553,3.553,0,0,0,.2-1,2.769,2.769,0,0,0-.1-.9,2.092,2.092,0,0,0-.4-.6c-.2-.1-.3-.3-.6-.3Z"/><path class="c" d="M31.2,20.3h4v.9H32.1v3.1h2.8v.9H32.1v3.3h3.1v.9H31.1V20.3h.1Z"/><path class="c" d="M36.5,20.4a2.769,2.769,0,0,1,.9-.1h.9a3.4,3.4,0,0,1,1,.1,2.01,2.01,0,0,1,.8.4,2.177,2.177,0,0,1,.5.8,5.019,5.019,0,0,1,.2,1.2,3.287,3.287,0,0,1-.4,1.7,2.73,2.73,0,0,1-1.2.9l.5.5,1.8,3.6H40.4l-2-4-1-.2v4.2h-1Zm1,4.1h.8a1.656,1.656,0,0,0,1.2-.5,1.792,1.792,0,0,0,.4-1.4,1.746,1.746,0,0,0-.4-1.2,1.606,1.606,0,0,0-1.1-.5h-.5c-.2,0-.3,0-.4.1Z"/><path class="c" d="M42.5,20.3a.9.9,0,0,0,.5-.1h1.5a4.529,4.529,0,0,1,1.6.3,3.126,3.126,0,0,1,1.1.9,3.506,3.506,0,0,1,.6,1.4,12.253,12.253,0,0,1,.2,1.9,11.019,11.019,0,0,1-.2,1.8,4.714,4.714,0,0,1-.6,1.5,2.66,2.66,0,0,1-1.1,1,3.287,3.287,0,0,1-1.7.4H42.6C42.6,29.3,42.5,20.3,42.5,20.3Zm2,.8H43.4v7.4h1a2.663,2.663,0,0,0,1.2-.3,3.044,3.044,0,0,0,.8-.8,5.638,5.638,0,0,0,.4-1.2,7.569,7.569,0,0,0,.1-1.5,6.6,6.6,0,0,0-.1-1.4,5.638,5.638,0,0,0-.4-1.2,2.7,2.7,0,0,0-.7-.8A2.537,2.537,0,0,0,44.5,21.1Z"/><path class="c" d="M52.3,26.7H49.7L49,29.2H48L50.7,20h.5l2.7,9.2h-1ZM50,25.9h2.1l-.8-2.8-.2-1.4h0l-.3,1.4Z"/><path class="c" d="M56.9,24.7h2.5v4a4.053,4.053,0,0,1-.9.5,5.019,5.019,0,0,1-1.2.2,2.768,2.768,0,0,1-1.3-.3,2.836,2.836,0,0,1-1-.9,4.714,4.714,0,0,1-.6-1.5,7.487,7.487,0,0,1-.2-2.1,8.329,8.329,0,0,1,.3-2.2,10.092,10.092,0,0,1,.7-1.5,2.1,2.1,0,0,1,1.1-.8,2.663,2.663,0,0,1,1.2-.3,3.4,3.4,0,0,1,1,.1c.2.1.5.1.7.2l-.2,1a1.421,1.421,0,0,0-.6-.2,2.769,2.769,0,0,1-.9.1,2.92,2.92,0,0,0-.9.2,1.344,1.344,0,0,0-.7.6L55.3,23a5.537,5.537,0,0,0-.2,1.8,4.923,4.923,0,0,0,.6,2.9,1.965,1.965,0,0,0,1.7.9,2.016,2.016,0,0,0,1.1-.3V25.7l-1.7-.3v-.6Z"/><path class="c" d="M64,26.7H61.4l-.7,2.5h-1L62.4,20h.5l2.7,9.2h-1Zm-2.3-.8h2.1L63,23.2l-.2-1.4h0l-.3,1.4Z"/><path class="c" d="M67.8,23.5l-.6-1.4h0l.1,1.4v5.8h-.9V20.1H67L70.4,26l.5,1.4H71l-.2-1.5V20.1h.9v9.2h-.6Z"/><path class="c" d="M75.7,24.7h2.5v4a4.053,4.053,0,0,1-.9.5,5.019,5.019,0,0,1-1.2.2,2.768,2.768,0,0,1-1.3-.3,2.836,2.836,0,0,1-1-.9,4.714,4.714,0,0,1-.6-1.5,6.816,6.816,0,0,1-.2-2.1,8.329,8.329,0,0,1,.3-2.2,10.092,10.092,0,0,1,.7-1.5,2.1,2.1,0,0,1,1.1-.8,2.663,2.663,0,0,1,1.2-.3,3.4,3.4,0,0,1,1,.1c.2.1.5.1.7.2l-.2.9a1.421,1.421,0,0,0-.6-.2,3.4,3.4,0,0,1-1,.1,2.92,2.92,0,0,0-.9.2,1.344,1.344,0,0,0-.7.6,6.117,6.117,0,0,0-.5,1.2,11.019,11.019,0,0,0-.2,1.8,4.923,4.923,0,0,0,.6,2.9,1.965,1.965,0,0,0,1.7.9,2.016,2.016,0,0,0,1.1-.3V25.6l-1.7-.3Z"/><path class="c" d="M82.8,26.7H80.2l-.7,2.6h-1l2.7-9.2h.5l2.7,9.2h-1Zm-2.3-.8h2l-.8-2.8-.2-1.4h0l-.3,1.4Z"/><path class="c" d="M86.6,23.5,86,22.2h0l.1,1.4v5.8h-.9V20.2h.6l3.4,5.9.5,1.4h.1L89.6,26V20.2h.9v9.2h-.6Z"/><path class="c" d="M24.8,38.9c.2,0,.4-.1.7-.1h.7a1.7,1.7,0,0,1,.7.1c.2.1.3.2.5.3a1,1,0,0,1,.4.5,2.2,2.2,0,0,1,.1.8,2.663,2.663,0,0,1-.3,1.2,1.555,1.555,0,0,1-.8.6l.3.3,1.2,2.5h-.8l-1.4-2.7-.7-.1v2.9h-.7l.1-6.3Zm.6,3h.5a1.135,1.135,0,0,0,.8-.3,1.689,1.689,0,0,0,.3-1,1.884,1.884,0,0,0-.2-.8.908.908,0,0,0-.7-.3h-.7Z"/><path class="c" d="M29,38.9h2.8v.6H29.7v2.1h2v.6h-2v2.3h2.2v.6H29.1Z"/><path class="c" d="M32.7,38.9a1.268,1.268,0,0,1,.6-.1h.6a1.7,1.7,0,0,1,.7.1l.6.3c.2.1.3.3.5.6a2.335,2.335,0,0,1,0,2,1.651,1.651,0,0,1-1,1,1.7,1.7,0,0,1-.7.1h-.6v2.4h-.7Zm1.3.5h-.6v2.7H34a.9.9,0,0,0,.5-.1.52.52,0,0,0,.4-.2c.1-.2.2-.3.3-.5a1.7,1.7,0,0,0,.1-.7c0-.3,0-.5-.1-.6a1.38,1.38,0,0,0-.3-.4.52.52,0,0,0-.4-.2C34.3,39.5,34.1,39.4,34,39.4Z"/><path class="c" d="M39.5,38.9h.6v4.2a2.543,2.543,0,0,1-.4,1.7,2.106,2.106,0,0,1-1.3.5,2.389,2.389,0,0,1-1.4-.5,2.026,2.026,0,0,1-.4-1.5V38.9h.7v4a2.2,2.2,0,0,0,.1.8.764.764,0,0,0,.2.5,1.38,1.38,0,0,0,.4.3.749.749,0,0,0,.5.1c.4,0,.7-.1.8-.4a2,2,0,0,0,.2-1.3S39.5,38.9,39.5,38.9Z"/><path class="c" d="M44.3,40.3a.9.9,0,0,1-.1.5.52.52,0,0,1-.2.4c-.1.1-.2.3-.3.4a.52.52,0,0,1-.4.2h0c.1,0,.3.1.4.1a1.38,1.38,0,0,0,.4.3.764.764,0,0,1,.2.5,1.268,1.268,0,0,1,.1.6,1.884,1.884,0,0,1-.2.8,2.092,2.092,0,0,1-.4.6.864.864,0,0,1-.6.3,1.7,1.7,0,0,1-.7.1H41.4a.367.367,0,0,1-.3-.1V38.9c.2,0,.4-.1.6-.1h.8a1.268,1.268,0,0,1,.6.1.764.764,0,0,1,.5.2,1,1,0,0,1,.4.5A.908.908,0,0,1,44.3,40.3Zm-2.1,1.4h.6a2.092,2.092,0,0,0,.6-.4.844.844,0,0,0,.2-.7.9.9,0,0,0-.1-.5c-.1-.1-.1-.2-.2-.3s-.2-.1-.3-.2-.3,0-.4,0h-.7v2.2Zm.4,2.9a.9.9,0,0,0,.5-.1c.1-.1.3-.1.4-.2a.52.52,0,0,0,.2-.4.749.749,0,0,0,.1-.5,1.268,1.268,0,0,0-.1-.6,1.38,1.38,0,0,0-.3-.4c-.1-.1-.3-.1-.4-.2H41.9v2.3h.5C42.5,44.5,42.5,44.6,42.6,44.6Z"/><path class="c" d="M48.3,45.2h-3V38.9H46v5.7h2.4v.6Z"/><path class="c" d="M49,38.9h.7v6.3H49Z"/><path class="c" d="M51.8,42.3h-.3v2.9h-.7V38.9h.7v2.9l.3-.1,1.7-2.8h.8l-1.6,2.7-.4.3.4.4,1.8,2.9h-.9Z"/><path class="c" d="M56.8,38.9h.7v6.3h-.7Z"/><path class="c" d="M59.6,41.2l-.4-1h0l.1,1v4h-.6V38.8h.4l2.3,4.1.4.9h0l-.1-.9v-4h.6v6.4h-.4Z"/><path class="c" d="M63.4,38.9h1.4a4.253,4.253,0,0,1,1.1.2c.3.1.5.4.7.6a3,3,0,0,1,.4,1,5.7,5.7,0,0,1,.1,1.3,4.869,4.869,0,0,1-.1,1.2,2.994,2.994,0,0,1-.4,1,2.7,2.7,0,0,1-.8.7,2.663,2.663,0,0,1-1.2.3H63.2V38.9Zm1.4.5h-.7v5.1h.6a1.884,1.884,0,0,0,.8-.2,1.024,1.024,0,0,0,.5-.6c.1-.3.2-.5.3-.8a3.4,3.4,0,0,0,.1-1,2.769,2.769,0,0,0-.1-.9,1.135,1.135,0,0,0-.3-.8,2.651,2.651,0,0,0-.5-.6A1.854,1.854,0,0,0,64.8,39.4Z"/><path class="c" d="M67.8,42a4.94,4.94,0,0,1,.5-2.4,1.545,1.545,0,0,1,1.6-.8,3.553,3.553,0,0,1,1,.2,1.344,1.344,0,0,1,.6.7,3,3,0,0,1,.4,1A5.7,5.7,0,0,1,72,42a4.94,4.94,0,0,1-.5,2.4,1.545,1.545,0,0,1-1.6.8,3.553,3.553,0,0,1-1-.2,1.344,1.344,0,0,1-.6-.7,3,3,0,0,1-.4-1A5.7,5.7,0,0,1,67.8,42Zm.7,0a3.4,3.4,0,0,0,.1,1c.1.3.1.6.2.8a2.092,2.092,0,0,0,.4.6,1.421,1.421,0,0,0,.6.2,1.1,1.1,0,0,0,1-.6,4.477,4.477,0,0,0,.4-2,3.4,3.4,0,0,0-.1-1c-.1-.3-.1-.6-.2-.8a2.092,2.092,0,0,0-.4-.6,1.421,1.421,0,0,0-.6-.2,1.1,1.1,0,0,0-1,.6A3.444,3.444,0,0,0,68.5,42Z"/><path class="c" d="M73.7,41.2l-.4-1h0l.1,1v4h-.6V38.8h.4l2.3,4.1.4.9h0l-.1-.9v-4h.6v6.4H76Z"/><path class="c" d="M77.5,38.9h2.8v.6H78.2v2.1h2v.6h-2v2.3h2.2v.6H77.5Z"/><path class="c" d="M81.1,44.3a.764.764,0,0,0,.5.2,1.7,1.7,0,0,0,.7.1,1.884,1.884,0,0,0,.8-.2c.2-.1.3-.4.3-.8a1.421,1.421,0,0,0-.2-.6c-.1-.2-.3-.3-.5-.5-.2-.1-.4-.3-.6-.4a2.651,2.651,0,0,1-.6-.5,2.092,2.092,0,0,1-.4-.6,1.884,1.884,0,0,1-.2-.8,1.606,1.606,0,0,1,.5-1.1,1.746,1.746,0,0,1,1.2-.4,2.2,2.2,0,0,1,.8.1c.2.1.4.1.6.2l-.2.6c-.1-.1-.3-.1-.5-.2a1.7,1.7,0,0,0-.7-.1,1.854,1.854,0,0,0-.7.2.735.735,0,0,0-.2.6,1.421,1.421,0,0,0,.2.6c.1.2.3.3.5.5.2.1.4.3.6.4a2.651,2.651,0,0,1,.6.5,2.092,2.092,0,0,1,.4.6,1.884,1.884,0,0,1,.2.8,1.656,1.656,0,0,1-.5,1.2,2.106,2.106,0,0,1-1.3.5,2.769,2.769,0,0,1-.9-.1c-.2-.1-.4-.1-.6-.2Z"/><path class="c" d="M85,38.9h.7v6.3H85Z"/><path class="c" d="M89.3,43.4H87.5L87,45.2h-.7l1.9-6.4h.4l1.9,6.4h-.7Zm-1.6-.6h1.4l-.5-2-.2-1h0l-.2,1Z"/></svg>