<svg xmlns="http://www.w3.org/2000/svg" width="92" height="92" viewBox="0 0 92 92"><defs><style>.a{fill:#949494;}.b{fill:#fff;}</style></defs><rect class="a" width="92" height="92"/><path class="b" d="M45.5,48.9V43.1a.349.349,0,0,0-.1-.2S34.9,33.1,34.8,33a.139.139,0,0,0-.2,0L24.5,42s-9.2-8.2-9.3-8.3a.139.139,0,0,0-.2,0L4.8,43.3v6s10,9.4,10.1,9.6a.277.277,0,0,0,.4,0l9.8-8.8s9.8,8.7,10,8.9a.277.277,0,0,0,.4,0s9.9-9.7,10-9.7ZM14.2,51.1,8.6,46.3,15,40.9l5.4,4.8Zm21.1.7-6-5.4-.2-.1,6.2-5.5,6.4,5.4Z"/><path class="b" d="M86.5,51.5c.2,0,.2-.1.1-.2a.1.1,0,0,0-.1-.1,14.629,14.629,0,0,1-.9-1.3c-.3-.4-.6-.9-.9-1.3A15.257,15.257,0,0,1,83.6,47c-.3-.4-.5-.7-.8-1.1a11.319,11.319,0,0,0-1-1.3.188.188,0,0,1,0-.3c.4-.6.9-1.2,1.3-1.8s.9-1.2,1.3-1.8c.4-.5.7-1,1.1-1.5.2-.3.5-.7.7-1,.1-.1.1-.1.1-.2s-.2-.1-.3-.1H83.2a.462.462,0,0,0-.5.3,7.632,7.632,0,0,1-.8,1.1,14.629,14.629,0,0,0-.9,1.3c-.3.4-.5.7-.8,1.1-.1.1-.2.3-.3.4s-.1.1-.2,0a3.508,3.508,0,0,1-.5-.8c-.4-.5-.7-1-1.1-1.5l-.6-.9a4.234,4.234,0,0,1-.5-.7.462.462,0,0,0-.5-.3H73.6c-.2,0-.2.1-.1.2.3.4.5.7.8,1.1L75.5,41a14.629,14.629,0,0,1,.9,1.3,3.508,3.508,0,0,1,.5.8c.3.5.7.9,1,1.4a.188.188,0,0,1,0,.3,1.381,1.381,0,0,0-.3.4c-.3.4-.5.8-.8,1.2s-.5.7-.8,1.1c-.4.5-.7,1-1,1.4-.4.5-.7,1-1.1,1.5-.3.4-.5.7-.8,1.1,0,.1-.1.1-.1.2s.1.1.2.1h3.1c.1,0,.2-.1.3-.2.4-.6.8-1.1,1.2-1.7.2-.3.5-.7.7-1,.3-.5.7-1,1-1.5q.15-.3.3,0c.2.3.5.7.7,1,.4.6.8,1.1,1.2,1.7.3.5.7,1,1,1.5.1.2.2.2.4.2h2.2A2.268,2.268,0,0,1,86.5,51.5Z"/><path class="b" d="M72.1,37.7H62.8c-.3,0-.3,0-.3.3V51.2c0,.3.1.3.3.3h2.4a.265.265,0,0,0,.3-.3V46.3c0-.2,0-.2.2-.2h5.1c.2,0,.2-.1.2-.3v-2c0-.3,0-.3-.3-.3h-5a.215.215,0,0,1-.2-.2V40.5c0-.2,0-.2.2-.2h6.5c.2,0,.3,0,.3-.3V37.9C72.4,37.7,72.4,37.7,72.1,37.7Z"/><path class="b" d="M59.6,37.7H57.1c-.2,0-.3,0-.3.3v8a2.92,2.92,0,0,1-.2.9,3.552,3.552,0,0,1-.4.9,2.7,2.7,0,0,1-.7.8,3.7,3.7,0,0,1-1.1.5,8.6,8.6,0,0,1-1.6.1,2.46,2.46,0,0,1-1.1-.4,5.547,5.547,0,0,1-.8-.6,1.756,1.756,0,0,0-.4-.5c0-.1-.1-.1-.2-.1a1.884,1.884,0,0,0-.8.2c-.2.1-.5.1-.7.2-.3.1-.7.2-1,.3-.1,0-.1.1-.1.2a2.186,2.186,0,0,0,.3.5,7.006,7.006,0,0,0,.8,1c.3.3.7.6,1,.9a2.994,2.994,0,0,0,.8.4l.9.3a5.16,5.16,0,0,0,1.1.2h1.7c.4-.1.8-.1,1.2-.2.2-.1.4-.1.6-.2a3.128,3.128,0,0,0,1-.5,4.811,4.811,0,0,0,1.1-.9,4.129,4.129,0,0,0,.7-1.1,6.117,6.117,0,0,0,.5-1.2c.1-.3.1-.5.2-.8a4.869,4.869,0,0,0,.1-1.2V38C59.8,37.7,59.8,37.7,59.6,37.7Z"/><path class="b" d="M48.7,55.5v.3a.349.349,0,0,1-.2.1c-.1,0-.1,0-.2-.1v-.2H48c0,.2,0,.3.1.4s.2.1.4.1a.6.6,0,0,0,.4-.1c.1-.1.2-.1.2-.2V54.4h-.3v1.1Z"/><path class="b" d="M50,54.3,49.3,56h.4l.1-.4h.7l.2.4H51l-.7-1.7Zm-.1,1.1.2-.6.2.6Z"/><path class="b" d="M52.8,54.3h-.5l-.7.8v-.8h-.3v1.8h.3v-.5l.3-.3.5.8h.4L52.2,55Z"/><path class="b" d="M53.6,54.3,52.9,56h.4l.1-.4h.7l.2.4h.4L54,54.3Zm-.1,1.1.2-.6.2.6Z"/><path class="b" d="M56.1,55.5c0-.1-.1-.1-.2-.1.2,0,.3-.1.3-.2a.5.5,0,0,0,0-.6l-.2-.2H54.9v1.7h.3v-.7h.3a.1.1,0,0,1,.1.1,1.238,1.238,0,0,1,.2.3l.3.4h.4l-.2-.3A1.094,1.094,0,0,0,56.1,55.5Zm-.6-.4h-.3v-.4h.6c.1,0,.1,0,.1.1V55l-.1.1Z"/><path class="b" d="M58,54.3H56.6v.3h.5v1.5h.4V54.6H58Z"/><path class="b" d="M58.6,54.3,57.9,56h.4l.1-.4h.7l.2.4h.4L59,54.3Zm-.1,1.1.2-.6.2.6Z"/><path class="b" d="M60.6,56.1h.3v-.8h.8V55h-.8v-.4h.9v-.3H60.6Z"/><path class="b" d="M63.2,55.3v.3c0,.1,0,.1-.1.1s-.1.1-.2.1-.2,0-.2-.1c-.1,0-.1-.1-.1-.2V54.3h-.3v1.3c0,.1,0,.1.1.2,0,.1.1.1.2.1s.2.1.4.1a.367.367,0,0,0,.3-.1.349.349,0,0,0,.2-.1c.1-.1.1-.1.1-.2V54.3h-.3v1Z"/><path class="b" d="M63.8,54.6h.5v1.5h.4V54.6h.5v-.3H63.8Z"/><path class="b" d="M66.5,55.3v.3c0,.1,0,.1-.1.1s-.1.1-.2.1-.2,0-.2-.1c-.1,0-.1-.1-.1-.2V54.3h-.3v1.3c0,.1,0,.1.1.2,0,.1.1.1.2.1s.2.1.4.1a.367.367,0,0,0,.3-.1.349.349,0,0,0,.2-.1c.1-.1.1-.1.1-.2V54.3h-.3v1Z"/><path class="b" d="M68.5,55.5c0-.1-.1-.1-.2-.1.2,0,.3-.1.3-.2a.5.5,0,0,0,0-.6l-.2-.2H67.3v1.7h.3v-.7h.3a.1.1,0,0,1,.1.1,1.238,1.238,0,0,1,.2.3l.3.4h.4l-.2-.3A1.1,1.1,0,0,0,68.5,55.5Zm-.6-.4h-.3v-.4h.6c.1,0,.1,0,.1.1V55l-.1.1Z"/><path class="b" d="M69.5,55.3h.8V55h-.8v-.4h.9v-.3H69.1v1.8h1.3v-.3h-.9Z"/><path class="b" d="M71.9,55.1c-.1,0-.2-.1-.4-.1a.438.438,0,0,1-.3-.1l-.1-.1a.1.1,0,0,1,.1-.1c.1,0,.1-.1.2-.1s.2,0,.2.1a.349.349,0,0,1,.1.2H72a.52.52,0,0,0-.2-.4.749.749,0,0,0-.5-.1.367.367,0,0,0-.3.1.215.215,0,0,0-.2.2.349.349,0,0,1-.1.2c0,.1.1.3.2.3.1.1.2.1.4.2.1,0,.2.1.3.1s.1,0,.1.1v.1c0,.1,0,.1-.1.2-.1,0-.1.1-.3.1a.367.367,0,0,1-.3-.1c-.1-.1-.1-.1-.1-.3h-.3a.52.52,0,0,0,.2.4.764.764,0,0,0,.5.2c.2,0,.3,0,.4-.1a.215.215,0,0,0,.2-.2c0-.1.1-.2.1-.3a.367.367,0,0,0-.1-.3C72,55.2,72,55.2,71.9,55.1Z"/><path class="b" d="M73.6,55.3h.9V55h-.9v-.4h.9v-.3H73.2v1.8h1.4v-.3h-1Z"/><path class="b" d="M76.3,54.3h-.4l-.3.6-.4-.6h-.4l.5.9-.6.9h.5l.4-.6.3.6h.5l-.6-.9Z"/><path class="b" d="M77.6,55.7c-.1.1-.1.1-.2.1a.367.367,0,0,1-.3-.1c-.1-.1-.1-.2-.1-.5,0-.2,0-.4.1-.4a.367.367,0,0,1,.3-.1c.1,0,.2,0,.2.1.1.1.1.1.1.2l.3-.1c0-.1-.1-.2-.2-.3a.764.764,0,0,0-.5-.2,1.421,1.421,0,0,0-.6.2,1.445,1.445,0,0,0-.2.7.845.845,0,0,0,.2.6c.1.2.3.2.6.2a.9.9,0,0,0,.5-.1,1.381,1.381,0,0,0,.3-.4l-.3-.1Z"/><path class="b" d="M79.5,55h-.7v-.7h-.4v1.8h.4v-.8h.7v.8h.3V54.3h-.3Z"/><path class="b" d="M80.7,54.3,80,56h.4l.1-.4h.7l.2.4h.4l-.7-1.7Zm0,1.1.2-.6.2.6Z"/><path class="b" d="M83.1,55.5l-.7-1.2h-.3v1.8h.3V54.9l.7,1.2h.3V54.3h-.3Z"/><path class="b" d="M84.7,55.4h.4v.2c-.1,0-.1.1-.2.1h-.2a.758.758,0,0,1-.4-.2.749.749,0,0,1-.1-.5c0-.2,0-.3.1-.4s.2-.1.4-.1a.367.367,0,0,1,.3.1c.1,0,.1.1.1.2l.3-.1a.52.52,0,0,0-.2-.4.749.749,0,0,0-.5-.1c-.2,0-.3,0-.4.1s-.3.2-.3.3a4.331,4.331,0,0,0-.1.5.9.9,0,0,0,.1.5l.3.3a.749.749,0,0,0,.5.1.6.6,0,0,0,.4-.1c.1-.1.2-.1.3-.2V55h-.8v.4Z"/><path class="b" d="M86.2,55.8v-.5h.9V55h-.9v-.4h.9v-.3H85.8v1.8h1.4v-.3Z"/></svg>