<svg xmlns="http://www.w3.org/2000/svg" width="92" height="92" viewBox="0 0 92 92"><defs><style>.a{fill:#949494;}.b{fill:#fff;}</style></defs><rect class="a" width="92" height="92"/><path class="b" d="M21.8,40.8a1.555,1.555,0,0,0-.8-.6l-.6-.3a1.794,1.794,0,0,0,.7-.5,1.555,1.555,0,0,0,.6-.8,3,3,0,0,0,.4-1,3.4,3.4,0,0,0,.1-1,3.985,3.985,0,0,0-.3-1.7,2.189,2.189,0,0,0-.9-1,6.117,6.117,0,0,0-1.2-.5,5.7,5.7,0,0,0-1.3-.1,9.15,9.15,0,0,0-1.7.1c-.5.1-1,.1-1.4.2h-.1V47h.1a1.7,1.7,0,0,0,.7.1c.3,0,.5.1.8.1h1.4a7.772,7.772,0,0,0,1.6-.2,6.11,6.11,0,0,0,1.4-.7,3.045,3.045,0,0,0,.9-1.3,4.844,4.844,0,0,0,.3-1.8,5.9,5.9,0,0,0-.2-1.4A1.905,1.905,0,0,0,21.8,40.8Zm-1.2,1.3a2.165,2.165,0,0,1,.2,1.2,3.6,3.6,0,0,1-.2,1.1,3.508,3.508,0,0,1-.5.8,3.039,3.039,0,0,1-.7.5,2.92,2.92,0,0,1-.9.2H17.1V41.2h1.2a3.4,3.4,0,0,1,1,.1,6.89,6.89,0,0,1,.8.3C20.2,41.5,20.4,41.7,20.6,42.1ZM20,38.4a3.126,3.126,0,0,1-1.1.9,1.486,1.486,0,0,0-.6.1H17V34.9h1.4a1.949,1.949,0,0,1,.8.1,4.875,4.875,0,0,1,.7.3,2.092,2.092,0,0,1,.4.6,2.958,2.958,0,0,1,.2,1A2.456,2.456,0,0,1,20,38.4Z"/><path class="b" d="M28.1,33.2h-1L23.1,47v.2h1.7l1.1-3.8h3.6l1.1,3.8h1.8l-4.3-14Zm.9,8.7H26.3l1.1-4,.3-1.5.3,1.5Z"/><path class="b" d="M38.8,34.1a6.11,6.11,0,0,0-1.4-.7,9.307,9.307,0,0,0-2.9-.1,5.066,5.066,0,0,0-1.3.2h-.1V47h1.7V42H36a8.752,8.752,0,0,0,1.6-.2A3.924,3.924,0,0,0,39,41a5.019,5.019,0,0,0,1-1.4,6.537,6.537,0,0,0,.4-2.1,4.378,4.378,0,0,0-.4-2.1A5.023,5.023,0,0,0,38.8,34.1Zm-.3,3.4a6.052,6.052,0,0,1-.2,1.5,3.49,3.49,0,0,1-.6.9,2.177,2.177,0,0,1-.8.5,3.4,3.4,0,0,1-1,.1H35V35a1.087,1.087,0,0,0,.5-.1,9.7,9.7,0,0,1,1.7.1,2.01,2.01,0,0,1,.8.4,2.177,2.177,0,0,1,.5.8A5.633,5.633,0,0,0,38.5,37.5Z"/><path class="b" d="M47.3,34.1a6.11,6.11,0,0,0-1.4-.7,9.307,9.307,0,0,0-2.9-.1,5.066,5.066,0,0,0-1.3.2h-.1V47h1.7V42h1.2a8.752,8.752,0,0,0,1.6-.2,3.924,3.924,0,0,0,1.4-.8,5.019,5.019,0,0,0,1-1.4,6.537,6.537,0,0,0,.4-2.1,4.378,4.378,0,0,0-.4-2.1A5.023,5.023,0,0,0,47.3,34.1ZM47,37.5a6.052,6.052,0,0,1-.2,1.5,3.49,3.49,0,0,1-.6.9,2.177,2.177,0,0,1-.8.5,3.4,3.4,0,0,1-1,.1h-.9V35a1.087,1.087,0,0,0,.5-.1,4.879,4.879,0,0,1,1.7.1,2.01,2.01,0,0,1,.8.4,2.177,2.177,0,0,1,.5.8A5.633,5.633,0,0,0,47,37.5Z"/><path class="b" d="M51.7,40.9h4.2V39.3H51.7V35h4.6V33.4H50.1V47.1h6.3V45.6H51.7Z"/><path class="b" d="M64.6,40.8a1.555,1.555,0,0,0-.8-.6l-.6-.3a1.794,1.794,0,0,0,.7-.5,1.555,1.555,0,0,0,.6-.8,3,3,0,0,0,.4-1,3.4,3.4,0,0,0,.1-1,3.984,3.984,0,0,0-.3-1.7,2.189,2.189,0,0,0-.9-1,6.117,6.117,0,0,0-1.2-.5,5.7,5.7,0,0,0-1.3-.1,9.15,9.15,0,0,0-1.7.1c-.5.1-1,.1-1.4.2h-.1V47h.1a1.7,1.7,0,0,0,.7.1c.3,0,.5.1.8.1h1.4a7.772,7.772,0,0,0,1.6-.2,6.11,6.11,0,0,0,1.4-.7A3.045,3.045,0,0,0,65,45a4.844,4.844,0,0,0,.3-1.8,5.9,5.9,0,0,0-.2-1.4A1.905,1.905,0,0,0,64.6,40.8Zm-1.2,1.3a2.165,2.165,0,0,1,.2,1.2,3.6,3.6,0,0,1-.2,1.1,3.508,3.508,0,0,1-.5.8,3.039,3.039,0,0,1-.7.5,2.92,2.92,0,0,1-.9.2H59.9V41.2H61a3.4,3.4,0,0,1,1,.1,6.89,6.89,0,0,1,.8.3C63,41.5,63.2,41.7,63.4,42.1Zm-.6-3.7a3.126,3.126,0,0,1-1.1.9,1.486,1.486,0,0,0-.6.1H59.8V34.9h1.4a1.949,1.949,0,0,1,.8.1,4.875,4.875,0,0,1,.7.3,2.092,2.092,0,0,1,.4.6,2.959,2.959,0,0,1,.2,1A2.456,2.456,0,0,1,62.8,38.4Z"/><path class="b" d="M65.6,35h3.3V47.1h1.7V35h3.3V33.4H65.6Z"/><rect class="b" width="1.7" height="13.7" transform="translate(75.2 33.4)"/><rect class="b" width="2.1" height="35.5" transform="translate(9.9 28.2)"/><rect class="b" width="2.1" height="35.5" transform="translate(80.1 28.2)"/></svg>