<svg xmlns="http://www.w3.org/2000/svg" width="92" height="92" viewBox="0 0 92 92"><defs><style>.a{fill:#949494;}.b{fill:#fff;}</style></defs><rect class="a" width="92" height="92"/><path class="b" d="M33.6,50.6H25.2c-.4,0-.5.1-.5.5v7c0,.2.1.4-.1.6H14.1V33.5H24.7c.2.2.1.4.1.6v7c0,.4.1.5.5.5h8.4c.4,0,.5-.1.5-.5v-9a.812.812,0,0,0-.4-.8c-2.9-2.3-5.9-4.6-8.8-7a.952.952,0,0,0-.7-.2H14.7c-.2,0-.4-.1-.5.1-3,2.4-6.1,4.8-9.1,7.2a.908.908,0,0,0-.3.7V60.2a.908.908,0,0,0,.3.7c3,2.4,6.1,4.8,9.1,7.2H24.7c.1,0,.1,0,.2-.1l9-7.2a.735.735,0,0,0,.2-.6V51.1C34.1,50.7,34,50.6,33.6,50.6Z"/><path class="b" d="M81.1,42.5c0-1,0-1-1.1-1-.3,0-.4.1-.4.4v4.6h-.1c-.1-.2-.1-.3-.2-.5-.6-1.4-1.1-2.8-1.7-4.2-.1-.3-.7-.5-1.2-.3-.4.1-.2.4-.2.6v7.3c0,.9,0,.9.9.9.4,0,.5-.1.5-.5v-4a.507.507,0,0,1,.1-.5c.1.2.2.3.2.5.6,1.4,1.1,2.7,1.7,4.1.2.4.6.5,1.2.4.4-.1.2-.4.2-.6C81.1,47.3,81.1,44.9,81.1,42.5Z"/><path class="b" d="M46.7,39.2c0,1-.2.8.9.9.4,0,.4-.1.4-.5V35.3c.1.1.2.1.2.2.6,1.4,1.1,2.8,1.7,4.2.2.6.7.3,1,.3.4,0,.2-.3.2-.5V32c0-.3-.1-.5-.4-.5h-.4c-.4-.1-.5.1-.5.5v4.3h-.1c0-.1,0-.1-.1-.2-.6-1.5-1.2-2.9-1.7-4.4-.2-.6-.7-.3-1.1-.3s-.2.3-.2.5C46.7,34.4,46.7,36.8,46.7,39.2Z"/><path class="b" d="M63.9,35.5v4.1c0,.2-.1.4.2.5.8.2,1.1,0,1.1-.8V35.4h.1c.1.2.2.3.2.5.5,1.2,1,2.4,1.4,3.6.3.8.3.8,1.1.7a.265.265,0,0,0,.3-.3V32a.265.265,0,0,0-.3-.3h-.5c-.4-.1-.5.1-.5.5v3.9c0,.1.1.3-.1.4-.2-.1-.2-.3-.2-.5-.5-1.3-1.1-2.6-1.5-3.9-.2-.6-.7-.4-1.1-.4s-.2.4-.2.6C63.9,33.2,63.9,34.4,63.9,35.5Z"/><path class="b" d="M87.3,45.8a.265.265,0,0,0-.3-.3H85.2c-.4,0-.3.3-.2.5,0,.2-.2.7.2.6.8-.1.7.3.7.8v.8a.923.923,0,0,1-.9,1,.809.809,0,0,1-.9-.8,19.481,19.481,0,0,1-.2-2.5,10.978,10.978,0,0,1,.2-2.6.849.849,0,0,1,.8-.7c.5,0,.8.2.8.7.1.6.4.6.8.5h.3c.3,0,.4-.1.4-.4a2.2,2.2,0,0,0-2.3-2,2.262,2.262,0,0,0-2.3,2,2.2,2.2,0,0,0-.1.8,21.418,21.418,0,0,0,.1,4.4,2.092,2.092,0,0,0,2.2,1.8,2.228,2.228,0,0,0,2.4-1.7A13.834,13.834,0,0,0,87.3,45.8Z"/><path class="b" d="M48.2,56.3V52.5c0-.3-.1-.5-.4-.4h-.4c-.3,0-.5.1-.5.4v1.9c0,1.2,0,1.2-1.2,1.2-.4,0-.5-.1-.5-.5V52.5c0-.6-.4-.4-.7-.4s-.6-.1-.6.5V60c0,.4.1.5.5.5h.4c.3,0,.4-.1.4-.4v-2c0-1.2,0-1.2,1.2-1.2.3,0,.4.1.4.4v2.6c0,.5.1.7.7.6h.2c.4.1.4-.1.4-.4C48.2,58.8,48.2,57.6,48.2,56.3Z"/><path class="b" d="M58.7,52.2h-.3c-.3,0-.4.1-.4.4v6c0,.6-.4,1-.9.9-.5,0-.8-.4-.8-1V53c0-.8,0-.8-.8-.8h-.1c-.3,0-.5.1-.5.4v2.9h0v3.2a2.115,2.115,0,0,0,4.2-.5V52.7C59.3,52.2,59.1,52.1,58.7,52.2Z"/><path class="b" d="M78.6,38.2v-.5c0-1.5-.3-2-1.7-2.5-.1-.1-.3-.1-.4-.2-.8-.3-1-.6-.9-1.5.1-.5.3-.8.8-.8s.8.2.8.8c0,.3.1.4.4.4h.6a.265.265,0,0,0,.3-.3,1.95,1.95,0,0,0-1.4-1.9,2.186,2.186,0,0,0-2.6,1,2.4,2.4,0,0,0,1.3,3.5c.1,0,.2.1.3.1,1.1.4,1.3.8,1.1,2-.1.5-.3.8-.9.8-.5,0-.8-.2-.8-.8,0-.3-.1-.5-.5-.4h-.6a.265.265,0,0,0-.3.3,1.88,1.88,0,0,0,.8,1.7A2.491,2.491,0,0,0,78.6,38.2Z"/><path class="b" d="M48,48h-.2c-.2,0-.4,0-.4.3-.1.5-.3.9-.9.9-.5,0-.8-.2-.9-.9a22.879,22.879,0,0,1-.1-3.7,5.7,5.7,0,0,1,.1-1.3.773.773,0,0,1,.8-.7.876.876,0,0,1,.9.7c.1.4.3.5.6.5h.5c.3,0,.4-.1.3-.4a2.322,2.322,0,0,0-4.6,0c-.1.8,0,1.7-.1,2.6a8.834,8.834,0,0,0,.2,2.8,2.229,2.229,0,0,0,2,1.7,2.153,2.153,0,0,0,2.4-1.4C49,48.1,48.9,48,48,48Z"/><path class="b" d="M55.4,42v7.9c0,.2,0,.4.3.4h3.2a.265.265,0,0,0,.3-.3v-.5c0-.3-.1-.4-.4-.4H57.2c-.3,0-.4-.1-.4-.4V46.9c0-.3.1-.4.4-.4h1.3q.45,0,.3-.3v-.5c0-.3-.1-.4-.4-.4H57.1c-.3,0-.4-.1-.4-.4V43.1c0-.3.1-.4.4-.4h1.3c.8,0,.7,0,.8-.8,0-.4-.1-.5-.5-.4H55.8C55.5,41.6,55.4,41.7,55.4,42Z"/><path class="b" d="M63.3,55.8c-.3-.1-.5-.2-.8-.3-.8-.3-.9-.5-.8-1.3,0-.6.3-.9.8-.9a.736.736,0,0,1,.8.8c0,.2.1.4.4.3h.6a.265.265,0,0,0,.3-.3,1.843,1.843,0,0,0-1.4-1.9,2.012,2.012,0,0,0-2.5,1A2.326,2.326,0,0,0,62,56.6a.349.349,0,0,1,.2.1c1.1.5,1.3.7,1.2,1.9a.736.736,0,0,1-.8.8.8.8,0,0,1-.9-.7c0-.4-.2-.5-.5-.4h-.4c-.3,0-.4.1-.4.4.2,1.3.8,1.9,2.1,1.9a1.929,1.929,0,0,0,2.2-2.1v-.7A2.076,2.076,0,0,0,63.3,55.8Z"/><path class="b" d="M72.7,38.8h-.5c-1,0-1,0-1-1,0-.5-.1-1.1.1-1.3.2-.3.9-.1,1.3-.1h.1c.4.1.4-.2.4-.5s.2-.7-.4-.7H71.6c-.3,0-.4-.1-.4-.4V33.2c0-.4.1-.5.5-.5h1c.8,0,.7.2.8-.8,0-.3-.1-.4-.4-.4H70.4c-.3,0-.4.1-.4.4v7.7c0,.3.1.4.4.4H73c.4,0,.5-.1.5-.5C73.4,39,73.3,38.7,72.7,38.8Z"/><path class="b" d="M68.9,52.2H67c-1.2,0-1.2,0-1.2,1.2v6.7c0,.4.1.5.5.5h2.2c.8,0,.8,0,.8-.8,0-.3-.1-.4-.4-.4H67.5c-.3,0-.4-.1-.4-.4V57.3c0-.3.1-.4.4-.4h1.1c.5,0,.3-.3.4-.6,0-.3.1-.6-.4-.5H67.4c-.3,0-.3-.1-.3-.4V53.7c0-.3.1-.4.4-.4h1.4c.4,0,.4-.2.4-.5C69.2,52.6,69.5,52.1,68.9,52.2Z"/><path class="b" d="M53.4,49.1H52.2c-.4,0-.5-.1-.5-.5V42.5c0-1-.1-1.1-1.1-1a.265.265,0,0,0-.3.3V50c0,.2,0,.3.2.3h3.3c.3,0,.3-.2.3-.4C54.2,49.1,54.2,49.1,53.4,49.1Z"/><path class="b" d="M74.8,46V42.5c0-.9,0-.9-.9-.9-.5,0-.5.2-.5.6v7.3c0,.9,0,.9.9.9.4,0,.5-.1.5-.5Z"/><path class="b" d="M44.4,40h.3c.4.1.6-.1.5-.5V32.4c0-.9,0-.9-.9-.9-.3,0-.4.1-.4.4v7.7C43.9,40,44.1,40.1,44.4,40Z"/><path class="b" d="M79.9,39.7q0,.45.3.3h.5c.4,0,.5-.1.5-.5V32.4c0-1,0-.9-1-.9a.265.265,0,0,0-.3.3Z"/><path class="b" d="M71.1,47.3c-.2-.5-.4-.9.2-1.3.2-.1.3-.5.4-.7a4.517,4.517,0,0,0,.1-2,1.763,1.763,0,0,0-2-1.7H67.7c-.4,0-.5.1-.5.5v7.3c0,1,0,1,1,1,.4,0,.4-.2.4-.5V47.3c0-.2-.2-.5.2-.6.4,0,.7,0,.8.5.3.9.6,1.9.9,2.8.1.2.2.4.4.3H72v-.1C71.7,49.2,71.4,48.3,71.1,47.3Zm-.8-2.4c-.1.5-1.1.8-1.6.6a.367.367,0,0,1-.1-.3V43.6c.1-.3-.3-.7.3-.8.9-.1,1.3,0,1.5.6A2.573,2.573,0,0,1,70.3,44.9Z"/><path class="b" d="M57,38.2a22.573,22.573,0,0,0,.1-4.5c-.2-1.6-1-2.2-2.6-2.2H53.3c-.5,0-.6.1-.6.6v7.4c0,.4.1.5.5.5h1.7A1.983,1.983,0,0,0,57,38.2Zm-1.3-.3a1.049,1.049,0,0,1-1.5.9c-.2,0-.2-.2-.2-.4V33.1c0-.3.1-.4.4-.4.9,0,1.2.2,1.3,1A29.438,29.438,0,0,1,55.7,37.9Z"/><path class="b" d="M66,49.9c-.7-2.7-1.4-5.4-2-8-.1-.2-.2-.3-.4-.3h-.5c-.4-.1-.6.1-.7.5-.2,1-.5,1.9-.7,2.9-.4,1.6-.9,3.3-1.3,4.9,0,.1-.2.4,0,.4a2.438,2.438,0,0,0,1.2,0c.3-.1.2-.4.3-.6.2-1.1.2-1.1,1.3-1.1s1.1,0,1.3.8c.2,1,.2.9,1.2.9C66,50.4,66.1,50.3,66,49.9Zm-2.3-2.5h0c-1.4.1-1.4.1-1.1-1.2.2-.7.3-1.5.5-2.2a.31.31,0,0,1,.1-.2c.3,1.2.5,2.2.7,3.3C64,47.3,63.9,47.4,63.7,47.4Z"/><path class="b" d="M60.4,40.1a2.046,2.046,0,0,0,2.1-1.7,7.584,7.584,0,0,0,.1-2.6V33.7a2.182,2.182,0,0,0-2.2-2.3,2.241,2.241,0,0,0-2.2,2.3c0,.4-.1.8-.1,1.2a14.523,14.523,0,0,0,.2,3.6A1.983,1.983,0,0,0,60.4,40.1Zm-.8-6.7c.1-.4.3-.8.8-.8a.876.876,0,0,1,.9.8,20.121,20.121,0,0,1,.1,2.6,12.827,12.827,0,0,1-.1,1.8c0,.2-.1.4-.1.6-.1.4-.4.5-.8.5a.666.666,0,0,1-.7-.5.9.9,0,0,1-.1-.5A13.594,13.594,0,0,1,59.6,33.4Z"/><path class="b" d="M53.8,54.5a4.331,4.331,0,0,0-.1-.5,2.005,2.005,0,0,0-2.1-1.9,2.061,2.061,0,0,0-2.1,1.8,19.275,19.275,0,0,0,0,4.8,2.111,2.111,0,0,0,4.2,0,19.269,19.269,0,0,0,.1-2.4Zm-1.3,4.1c-.1.5-.3.8-.8.8s-.7-.4-.8-.8a17.708,17.708,0,0,1,0-4.6c.1-.5.3-.8.8-.8.6,0,.7.4.8.8a16.2,16.2,0,0,1,.1,2.2C52.5,57.1,52.6,57.9,52.5,58.6Z"/><path class="b" d="M83.5,39.4c.2-1.1.2-1.1,1.4-1.1.9,0,.9,0,1,.8.1.9.1.9,1,.9h.2c.3,0,.3-.1.2-.3-.6-2.5-1.3-5.1-1.9-7.6-.1-.4-.2-.7-.7-.5-.6-.2-.7.1-.8.6l-1.8,7.2c-.1.6-.1.6.6.6C83.2,40.1,83.4,39.9,83.5,39.4Zm.5-2.5c.2-1,.4-2,.6-3.1h.1c.2,1,.4,2,.6,3.1V37c-.3.5-.8.1-1.2.2C84,37.2,83.9,37.1,84,36.9Z"/></svg>