<svg xmlns="http://www.w3.org/2000/svg" width="92" height="92" viewBox="0 0 92 92"><defs><style>.a{fill:#949494;}.b{fill:#fefefd;}</style></defs><rect class="a" width="92" height="92"/><path class="b" d="M43.2,43.5h9.6V36.8H37.6a.9.9,0,0,1-1-1V33.1a.8.8,0,0,1,.7-.9H54.4A4.879,4.879,0,0,1,58,33.5a4.15,4.15,0,0,1,1.2,2v7.9a4.885,4.885,0,0,1-2.1,4,2.417,2.417,0,0,1-2,.6H37.6a1,1,0,0,1-1.1-1.1V39.2a.8.8,0,0,1,.9-.9H42a1,1,0,0,1,1.1,1.1v3.7C43.2,43.2,43.2,43.3,43.2,43.5Z"/><path class="b" d="M19,43.3H33.9a1.061,1.061,0,0,1,1.2,1.2v2.8a.713.713,0,0,1-.7.8H16.6A3.971,3.971,0,0,1,12.7,45a5.7,5.7,0,0,1-.1-1.3V36.2a4.6,4.6,0,0,1,1.3-3.3,3.176,3.176,0,0,1,2-.8h18c.9,0,1.2.3,1.2,1.2v2.5a.817.817,0,0,1-.9.8H19.3c-.3,0-.3.1-.3.3v6.4Z"/><path class="b" d="M11.1,40.1v7.2a.876.876,0,0,1-.9.7h-5c-.3,0-.5-.1-.6-.5a1.483,1.483,0,0,1-.1-.7V33.2a1.059,1.059,0,0,1,.6-1.1c.1,0,.3-.1.4-.1h4.6c.7,0,1,.3,1,1Z"/><path class="b" d="M64.2,48.1H61.6a3.6,3.6,0,0,1-1.1-.2.743.743,0,0,1-.4-1.1c.1-.1.2-.3.3-.4,1.9-1.8,3.9-3.7,5.8-5.5a.758.758,0,0,1,.4-.2h3.8a.736.736,0,0,1,.8.8v2.8c0,.1-.1.2-.1.3-1.2,1.1-2.4,2.2-3.6,3.4-.1.1-.2.1-.4.1Z"/><path class="b" d="M64.3,32.3h2.9a.367.367,0,0,1,.3.1c1.2,1.1,2.4,2.3,3.6,3.4a.367.367,0,0,1,.1.3v2.8a.736.736,0,0,1-.8.8H66.5a1.007,1.007,0,0,1-.3-.1c-2-1.8-3.9-3.7-5.9-5.5l-.1-.1a.8.8,0,0,1,.4-1.4,2.769,2.769,0,0,1,.9-.1,13.678,13.678,0,0,1,2.8-.2Z"/><path class="b" d="M79,32.3h2.7a1.95,1.95,0,0,1,.8.1.825.825,0,0,1,.4,1.5c-.7.7-1.4,1.3-2.1,2-1.2,1.2-2.5,2.3-3.7,3.5a.764.764,0,0,1-.5.2H72.8c-.6,0-.8-.3-.8-.8V36.1a1.007,1.007,0,0,1,.1-.3c1.2-1.1,2.4-2.3,3.6-3.4a.367.367,0,0,1,.3-.1Z"/><path class="b" d="M79,48.1H76.1a.758.758,0,0,1-.4-.2c-1.2-1.1-2.4-2.2-3.5-3.3a.758.758,0,0,1-.2-.4V41.5a.632.632,0,0,1,.7-.7h4c.1,0,.2.1.3.1,2,1.8,3.9,3.7,5.9,5.5a1.381,1.381,0,0,1,.3.4.7.7,0,0,1-.4,1.1,3.553,3.553,0,0,1-1,.2Z"/><path class="b" d="M19.5,53.6a8.1,8.1,0,0,1,3.1.1,2.238,2.238,0,0,1,1.7,1.9,3.5,3.5,0,0,1-.6,2.6,2.5,2.5,0,0,1-1.8.8,17.652,17.652,0,0,1-2.3,0C19.5,57.2,19.5,55.4,19.5,53.6Zm3.4,2.6a1.512,1.512,0,0,0-1.4-1.7h-.6a.265.265,0,0,0-.3.3v2.8c0,.6-.1.6.6.6a1.632,1.632,0,0,0,1.7-1.4Q22.9,56.35,22.9,56.2Z"/><path class="b" d="M64.1,56.2a2.934,2.934,0,0,1-.4,1.6,2.824,2.824,0,0,1-2.6,1.3,2.506,2.506,0,0,1-2.3-2.5,2.814,2.814,0,0,1,.9-2.5,2.6,2.6,0,0,1,2.8-.4A2.388,2.388,0,0,1,64,55.9C64.1,55.9,64.1,56.1,64.1,56.2Zm-4,.1a2.663,2.663,0,0,0,.3,1.2,1.171,1.171,0,0,0,2-.1,2.016,2.016,0,0,0,.3-1.1,1.845,1.845,0,0,0-.5-1.7,1.15,1.15,0,0,0-1.7,0A3.533,3.533,0,0,0,60.1,56.3Z"/><path class="b" d="M46.4,55.6V53.5h1.2v5.4H46.4V56.6h-2v2.3H43.2V53.5h1.2v2.1Z"/><path class="b" d="M71.7,59H70.4V53.6c.2,0,.4-.1.6-.1h1.9a1.492,1.492,0,0,1,1.2,2.3,4.349,4.349,0,0,1-.7.6,1.442,1.442,0,0,1,.7,1.1c.1.5.3,1,.4,1.5H73.4a.215.215,0,0,1-.2-.2c-.1-.4-.2-.8-.3-1.1-.2-.7-.5-.9-1.2-.8Zm0-3c.4,0,.7-.1,1-.1a.74.74,0,0,0,0-1.4,2.152,2.152,0,0,0-.8,0c-.1,0-.1.1-.2.2Z"/><path class="b" d="M12.2,56.4a1.525,1.525,0,0,1,.7,1.2c.1.5.3.9.4,1.4H12.2a.215.215,0,0,1-.2-.2,5.638,5.638,0,0,0-.4-1.2c-.2-.6-.4-.7-1-.7-.2,0-.2.1-.2.2V59H9.2V53.6c.2,0,.4-.1.7-.1a14.769,14.769,0,0,1,2.1.1,1.379,1.379,0,0,1,1.2,1.2,1.346,1.346,0,0,1-.8,1.5A.349.349,0,0,0,12.2,56.4ZM10.4,56c.4,0,.7-.1,1-.1a.74.74,0,0,0,0-1.4,2.152,2.152,0,0,0-.8,0,.215.215,0,0,0-.2.2Z"/><path class="b" d="M64.9,53.5h1.2v3.1a1.268,1.268,0,0,0,.1.6.9.9,0,0,0,1,.8.817.817,0,0,0,.8-.9V53.5h1.2v3.1a3.079,3.079,0,0,1-.3,1.3A2.082,2.082,0,0,1,66.6,59a1.76,1.76,0,0,1-1.8-1.9C64.9,56,64.9,54.8,64.9,53.5Z"/><path class="b" d="M18.7,59H17.5c-.1,0-.1-.1-.2-.2-.1-.4-.2-.7-.3-1.1a.215.215,0,0,0-.2-.2H15.6c-.2,0-.2.1-.3.2-.1.3-.2.7-.3,1a.215.215,0,0,1-.2.2H13.6c.2-.7.4-1.3.6-1.9.3-1.1.7-2.2,1-3.4,0-.1.1-.2.3-.2h1.2a.215.215,0,0,1,.2.2c.5,1.7,1.1,3.5,1.6,5.2C18.7,58.9,18.7,58.9,18.7,59Zm-2-2.4c-.2-.7-.4-1.4-.6-2.2-.2.8-.4,1.5-.6,2.2Z"/><path class="b" d="M34.8,59.1a4.331,4.331,0,0,1,.1.5,2.986,2.986,0,0,1-2.9-.1A2.436,2.436,0,0,1,30.9,57,2.765,2.765,0,0,1,33,54.4a2.655,2.655,0,0,1,2.8.6,2.433,2.433,0,0,1,0,3.2,1.5,1.5,0,0,1-1.1.4.634.634,0,0,1-.6-.5,3.508,3.508,0,0,1-.8.5.859.859,0,0,1-1.2-.7,1.735,1.735,0,0,1,1.6-2.1,3.4,3.4,0,0,1,1,.1c.2,0,.2.1.2.3a6.753,6.753,0,0,0-.2,1.4c0,.2-.1.5.1.6.3.1.4-.1.6-.3a1.857,1.857,0,0,0,.1-1.9,1.806,1.806,0,0,0-1.4-1,2.367,2.367,0,0,0-2.7,2.5,1.971,1.971,0,0,0,2.6,2C34.4,59.2,34.6,59.1,34.8,59.1Zm-.6-2.9c-.5-.2-1.2.3-1.2,1.1,0,.2.1.4.3.4a.764.764,0,0,0,.5-.2.52.52,0,0,0,.2-.4A2.388,2.388,0,0,0,34.2,56.2Z"/><path class="b" d="M48.7,58.9V53.5h3.4v1H50v1.1h2v1H50v1.3h2.2v1Z"/><path class="b" d="M83.3,55.7v1H81.5a.265.265,0,0,0-.3.3v1h2.2v1H79.9V53.6h3.3v1H81.1v1a.349.349,0,0,0,.2.1h2Z"/><path class="b" d="M25.1,53.5h3.3v1H26.3v1.1h2v1h-2v1.3h2.2v1H25.1Z"/><path class="b" d="M54.7,57.8l1.2.3a1.7,1.7,0,0,0,.7-.1c.4-.2.5-.7.1-.9a4.875,4.875,0,0,0-.7-.3,4.053,4.053,0,0,1-.9-.5,1.368,1.368,0,0,1,.1-2.4,2.667,2.667,0,0,1,2.6-.1.349.349,0,0,1,.1.2c-.1.3-.1.5-.2.8-.3-.1-.5-.1-.8-.2h-.4a.894.894,0,0,0-.8.4c-.1.3.1.5.5.7a4.5,4.5,0,0,1,1.2.6,1.557,1.557,0,0,1-.2,2.7,3.6,3.6,0,0,1-2.7,0c-.1,0-.1-.1-.1-.2C54.6,58.3,54.6,58,54.7,57.8Z"/><path class="b" d="M79.1,54.6c-.9-.3-1.8-.4-2.4.4a1.966,1.966,0,0,0-.1,2.2c.6,1,1.6.8,2.5.6.1.3.1.5.2.8a.215.215,0,0,1-.2.2,3.851,3.851,0,0,1-2.6-.1,2.566,2.566,0,0,1-1.4-2.5A2.783,2.783,0,0,1,78,53.3c.4,0,.8.1,1.2.1.2,0,.3.1.2.4A1.6,1.6,0,0,0,79.1,54.6Z"/><path class="b" d="M38.2,54.5v-1h4.2v1H40.9v4.4H39.6V54.5Z"/><path class="b" d="M7,54.5v4.4H5.8V54.5H4.3v-1H8.5v1Z"/><path class="b" d="M28.1,50.5a4.876,4.876,0,0,1,.3-.7c.1-.2.2-.3.4-.2h.4c0,.5.1.9.1,1.4h-.5a3.751,3.751,0,0,0-.1-1h0c-.1.3-.3.5-.4.8,0,.2-.1.2-.2.2-.2,0-.2-.1-.3-.2a2.994,2.994,0,0,0-.4-.8c0,.3-.1.6-.1.9h-.5c0-.5.1-.9.1-1.4h.5c.1,0,.2.1.3.2A5.9,5.9,0,0,1,28.1,50.5Z"/><path class="b" d="M32.3,51h-.5a3.751,3.751,0,0,0-.1-1,3.552,3.552,0,0,0-.4.9.367.367,0,0,1-.3.1c-.2,0-.2-.1-.3-.2a2.994,2.994,0,0,0-.4-.8c0,.4-.1.7-.1,1h-.5c0-.4.1-.9.1-1.3v-.1a.83.83,0,0,1,.8.2c.1.2.2.5.3.7.1-.2.2-.5.3-.7s.2-.3.4-.3H32A9.924,9.924,0,0,1,32.3,51Z"/><path class="b" d="M86.1,52.6a4.869,4.869,0,0,1-.1,1.2h-.4c0-.5.1-1.1.1-1.6a.215.215,0,0,1,.2-.2c.1,0,.3-.1.4.1.1.3.2.7.3,1.1a3.091,3.091,0,0,0,.2-.8c.1-.4.1-.4.6-.4,0,.6.1,1.2.1,1.8h-.4V52.5H87c-.1.3-.2.7-.3,1a.215.215,0,0,1-.2.2c-.2,0-.2-.1-.2-.2a2.92,2.92,0,0,0-.2-.9Z"/><path class="b" d="M79,51a.67.67,0,0,1-.8-.3,4.349,4.349,0,0,1-.6-.7v1h-.5V49.6a.759.759,0,0,1,.9.3,2.651,2.651,0,0,0,.5.6v-.9H79Z"/><path class="b" d="M14,50.5v-.9h.5V51a.67.67,0,0,1-.8-.3,4.349,4.349,0,0,1-.6-.7v1h-.5V49.6a.714.714,0,0,1,.9.3A2.651,2.651,0,0,0,14,50.5Z"/><path class="b" d="M5.9,50v1H5.5V49.6a.687.687,0,0,1,.9.3,2.651,2.651,0,0,0,.5.6v-.9h.4V51a.653.653,0,0,1-.8-.2C6.4,50.5,6.1,50.3,5.9,50Z"/><path class="b" d="M43.4,50.2c-.2-.3-.1-.6.2-.6h.7a.451.451,0,0,1,.3.3c0,.1-.1.2-.2.3a.349.349,0,0,1-.2.1,1.38,1.38,0,0,0,.4.3c.1-.3.3-.4.7-.3-.1.2-.2.3-.3.5.1.1.2.1.3.3H44.1a1.268,1.268,0,0,1-.6-.1.451.451,0,0,1-.3-.3c0-.1.1-.2.2-.4C43.3,50.3,43.4,50.3,43.4,50.2Zm.7.6v-.1a.52.52,0,0,0-.4-.2c-.1,0-.2,0-.2.1s0,.2.1.2ZM44,49.7l-.2.2a.2.2,0,1,0,.4,0C44.1,49.9,44.1,49.8,44,49.7Z"/><path class="b" d="M35.1,51V49.7a.1.1,0,0,1,.1-.1,6.6,6.6,0,0,1,1.4.1.61.61,0,0,1,0,1.2A2.45,2.45,0,0,1,35.1,51Zm.6-.7c0,.5.1.6.6.4.2-.1.4-.2.3-.4a.43.43,0,0,0-.4-.4C35.8,49.7,35.7,49.8,35.7,50.3Z"/><path class="b" d="M46.2,51V49.6a4.329,4.329,0,0,1,1.6.1c.3.1.4.2.4.6a.548.548,0,0,1-.4.6A2.968,2.968,0,0,1,46.2,51Zm.5-.2a6.372,6.372,0,0,0,.7-.2.758.758,0,0,0,.2-.4.319.319,0,0,0-.3-.3,1.483,1.483,0,0,0-.7-.1A3.751,3.751,0,0,1,46.7,50.8Z"/><path class="b" d="M7.8,51V49.6a4.329,4.329,0,0,1,1.6.1.548.548,0,0,1,.4.6.675.675,0,0,1-.4.6A2.917,2.917,0,0,1,7.8,51Zm.5-.2a6.372,6.372,0,0,0,.7-.2.52.52,0,0,0,.2-.4.758.758,0,0,0-.2-.4,1.483,1.483,0,0,0-.7-.1Z"/><path class="b" d="M33.7,49.5c.3.1.5.1.8.2a.653.653,0,0,1,0,1.1,1.363,1.363,0,0,1-1.5,0c-.5-.3-.5-.9,0-1.1A6.372,6.372,0,0,1,33.7,49.5Zm0,1.3a.472.472,0,0,0,.5-.5c0-.3-.2-.5-.6-.5a.472.472,0,0,0-.5.5A.634.634,0,0,0,33.7,50.8Z"/><path class="b" d="M25.5,51.1a2.614,2.614,0,0,1-.8-.3.609.609,0,0,1-.1-1,1.718,1.718,0,0,1,1.7,0,.654.654,0,0,1,0,1.1C26,51,25.7,51,25.5,51.1Zm0-.3a.5.5,0,0,0,0-1,.508.508,0,1,0,0,1Z"/><path class="b" d="M11.1,49.5c.3.1.6.1.8.2.5.2.5.8,0,1.1a1.535,1.535,0,0,1-1.6,0,.613.613,0,0,1-.1-1A9.44,9.44,0,0,0,11.1,49.5Zm0,1.3a.56.56,0,0,0,.6-.5c0-.3-.2-.5-.6-.5a.508.508,0,1,0,0,1Z"/><path class="b" d="M73,49.6v.5h.8v-.5h.5V51h-.5v-.6H73V51h-.5V49.6Z"/><path class="b" d="M51.8,50.4l.3.6c-.5.1-.5.1-.7-.3-.1-.2-.2-.3-.5-.2V51h-.5V49.7l.1-.1h1a.55.55,0,0,1,.5.3C52,50.1,51.8,50.2,51.8,50.4Zm-.9-.2h.4a.215.215,0,0,0,.2-.2c0-.1-.1-.1-.2-.2h-.4Z"/><path class="b" d="M80.8,50.8c.1-.2.1-.3-.2-.3-.1,0-.1-.1-.2-.1l.1-.1h.8V51a3.788,3.788,0,0,1-1.5,0,.634.634,0,0,1-.5-.6.675.675,0,0,1,.4-.6,2.573,2.573,0,0,1,1.5-.1v.1c0,.1,0,.1-.1.2h-.9a.4.4,0,1,0,0,.8Z"/><path class="b" d="M57.3,51c-.3,0-.6.1-.7-.3h-.7c-.1.4-.4.3-.7.3a9.143,9.143,0,0,1,.7-1.4,1.1,1.1,0,0,1,.8,0v.1A5.171,5.171,0,0,0,57.3,51Zm-.8-.6-.3-.6c-.1.2-.1.4-.2.6Z"/><path class="b" d="M74.7,51c.2-.5.4-.9.6-1.3l.1-.1H76c.1,0,.1.2.2.3.2.4.4.7.6,1.1-.4.1-.5.1-.7-.2-.1-.1-.7-.2-.7,0C75.3,51.1,75,51,74.7,51Zm1.3-.6a3.33,3.33,0,0,1-.3-.6c-.1.2-.1.4-.2.6Z"/><path class="b" d="M19.4,51a5.388,5.388,0,0,1,.7-1.3,1.1,1.1,0,0,1,.8,0c.2.4.4.8.6,1.3-.4.1-.5.1-.7-.2-.1-.1-.7-.2-.7,0C20,51.1,19.7,51,19.4,51Zm1.3-.6a1.421,1.421,0,0,1-.2-.6,1.421,1.421,0,0,0-.2.6Z"/><path class="b" d="M70.3,51c-.5.2-.7-.1-1-.5-.2.4-.5.7-.9.5a4.349,4.349,0,0,0,.6-.7,4.349,4.349,0,0,1-.6-.7c.3,0,.5,0,.6.1s.2.3.4.4c.2-.4.4-.6.9-.4a4.349,4.349,0,0,0-.6.7C69.9,50.5,70.1,50.8,70.3,51Z"/><path class="b" d="M68,50.2c.1.2,0,.3-.2.3h-.6v.3h.7c.2,0,.2,0,.2.3H66.7V49.7h1.4V50h-.7a.349.349,0,0,0-.2.1.215.215,0,0,0,.2.2A1.268,1.268,0,0,1,68,50.2Z"/><path class="b" d="M81.8,49.6h1.4v.3h-.8c-.1.2,0,.3.2.3h.6v.3h-.8c-.1.3-.1.3.2.3h.5c.2,0,.2.1.2.3H81.9A8.085,8.085,0,0,1,81.8,49.6Z"/><path class="b" d="M62.9,49.9v.3h.8c.1.2,0,.3-.2.3h-.6v.3h.7c.2,0,.3,0,.2.2H62.4V49.6h1.4v.2A3.085,3.085,0,0,1,62.9,49.9Z"/><path class="b" d="M49.9,50.2c.1.2,0,.3-.2.3h-.6v.3h.7c.2,0,.2.1.2.3H48.6V49.7h1.3l.2.2h-.9v.3Z"/><path class="b" d="M60,49.6c.5-.1.5-.1.7.3a4.875,4.875,0,0,1,.3.7,4.875,4.875,0,0,1,.3-.7c.2-.4.2-.4.7-.3-.2.4-.5.9-.7,1.3a.854.854,0,0,1-.7,0C60.4,50.5,60.2,50.1,60,49.6Z"/><path class="b" d="M53.2,49.6h0c.5,0,.5,0,.7.4.1.1.1.2.2.3,0,.1.1.2.2.4a4.875,4.875,0,0,1,.3-.7c.2-.4.2-.4.7-.4-.2.5-.5.9-.7,1.3a.854.854,0,0,1-.7,0c-.2-.4-.4-.7-.6-1.1C53.2,49.8,53.2,49.7,53.2,49.6Z"/><path class="b" d="M15,49.6h1.4c.1.2,0,.3-.2.3h-.7c-.1.2,0,.3.2.3h.6c0,.3,0,.3-.3.3h-.5v.3h.7c.2,0,.2.1.2.3H15Z"/><path class="b" d="M16.7,50.9a.349.349,0,0,1,.1-.2c.3,0,.6.2,1-.1-.2-.1-.3-.1-.4-.2-.2-.1-.3-.1-.5-.2-.3-.1-.3-.4,0-.6a1.672,1.672,0,0,1,1.2-.1c0,.2-.1.3-.3.2h-.5l-.1.1.1.1a.9.9,0,0,0,.5.1c.2.1.4.1.4.4,0,.2-.2.3-.4.4A.9.9,0,0,1,16.7,50.9Z"/><path class="b" d="M64.1,51a.349.349,0,0,1,.1-.2H65c.1,0,.1-.1.2-.1-.1-.1-.1-.1-.2-.1-.2-.1-.4-.1-.6-.2-.1-.1-.3-.2-.2-.3,0-.1.1-.3.2-.3a1.656,1.656,0,0,1,1.2,0,.349.349,0,0,1-.1.2c-.3,0-.6-.1-.9.1a.367.367,0,0,0,.3.1c.2.1.3.1.5.2.1.1.3.2.3.3a.319.319,0,0,1-.3.3A2.845,2.845,0,0,1,64.1,51Z"/><path class="b" d="M24.2,49.6c0,.2-.1.2-.3.2h-.7c-.2,0-.3.2-.3.4s.1.4.3.4.4.1.6,0c.2,0,.3,0,.3.2a1.9,1.9,0,0,1-1.3-.1.675.675,0,0,1-.4-.6.548.548,0,0,1,.4-.6C23.3,49.5,23.7,49.6,24.2,49.6Z"/><path class="b" d="M72.2,49.7c0,.2-.1.2-.3.2a1.7,1.7,0,0,0-.7.1.446.446,0,0,0-.3.4.536.536,0,0,0,.3.4,1.7,1.7,0,0,0,.7.1c.2,0,.3,0,.2.2a2.25,2.25,0,0,1-1.4-.1c-.5-.2-.5-.8,0-1.1A1.555,1.555,0,0,1,72.2,49.7Z"/><path class="b" d="M42.1,49.6c-.3.4-.9.7-.7,1.4h-.6c.2-.6-.4-.9-.7-1.4a1.268,1.268,0,0,1,.6.1c.2.1.2.3.4.5C41.5,49.9,41.6,49.4,42.1,49.6Z"/><path class="b" d="M38.9,49.9h-.6c0-.2-.1-.3.1-.3H40v.3h-.6V51h-.5Z"/><path class="b" d="M58.3,51h-.5V49.9h-.6c-.1-.2,0-.3.2-.3h1.3c.2,0,.2.1.2.3h-.6C58.3,50.3,58.3,50.6,58.3,51Z"/><path class="b" d="M85,53.8h-.4V52.7c0-.3,0-.4-.3-.4h-.1V52h1.4v.3h-.5A7.569,7.569,0,0,0,85,53.8Z"/><path class="b" d="M38,51h-.5V49.6H38Z"/><path class="b" d="M59.2,49.6h.5V51h-.5Z"/><path class="b" d="M4.5,49.6H5V51H4.5Z"/><path class="b" d="M18.6,49.6h.5V51h-.5Z"/><path class="b" d="M52.4,49.6h.5V51h-.5Z"/></svg>