<svg xmlns="http://www.w3.org/2000/svg" width="92" height="92" viewBox="0 0 92 92"><defs><style>.a{fill:#949494;}.b{fill:#fefefd;}</style></defs><rect class="a" width="92" height="92"/><path class="b" d="M24,73.5V68h1v5.5Z"/><path class="b" d="M27,73.5V68h.9l1.9,3.7V68h.9v5.5h-.9L28,69.9v3.6Z"/><path class="b" d="M32.7,68h1.7a3.083,3.083,0,0,1,1,.1,2.651,2.651,0,0,1,.6.5,1.884,1.884,0,0,1,.4.9,5.067,5.067,0,0,1,.2,1.3,3.73,3.73,0,0,1-.2,1.2,1.506,1.506,0,0,1-.4.8,2.651,2.651,0,0,1-.6.5,2,2,0,0,1-.9.2H32.8V68Zm.9.9v3.7h.7c.3,0,.5,0,.6-.1s.2-.1.3-.3a.764.764,0,0,0,.2-.5,2.787,2.787,0,0,0,.1-1,3.083,3.083,0,0,0-.1-1c-.1-.2-.1-.4-.3-.6-.1-.1-.3-.2-.4-.3H33.6Z"/><path class="b" d="M38.2,70.8a3.506,3.506,0,0,1,.3-1.6,2.539,2.539,0,0,1,.8-1,2.016,2.016,0,0,1,1.1-.3,1.99,1.99,0,0,1,1.6.7,3.281,3.281,0,0,1,.6,2.1,3.8,3.8,0,0,1-.6,2.2,1.8,1.8,0,0,1-1.5.7,1.865,1.865,0,0,1-1.6-.7A3.3,3.3,0,0,1,38.2,70.8Zm1,0a1.955,1.955,0,0,0,.4,1.4c.3.3.5.5.9.5a1.05,1.05,0,0,0,.9-.5,2.7,2.7,0,0,0,.4-1.5,2.649,2.649,0,0,0-.3-1.4,1.06,1.06,0,0,0-1.8,0A1.721,1.721,0,0,0,39.2,70.8Z"/><path class="b" d="M44.5,73.5V68h.9l1.9,3.7V68h.9v5.5h-.9l-1.8-3.6v3.6Z"/><path class="b" d="M50.2,73.5V68h3.4v.9H51.2v1.2h2.3V71H51.2v1.5h2.5v.9H50.2Z"/><path class="b" d="M55.4,71.7l.9-.1c.1.7.4,1.1,1,1.1a1.445,1.445,0,0,0,.7-.2c.2-.1.2-.3.2-.5a.367.367,0,0,0-.1-.3c-.1-.1-.1-.2-.3-.2a2.192,2.192,0,0,0-.8-.3,1.884,1.884,0,0,1-.9-.4,1,1,0,0,1-.4-.5,1.854,1.854,0,0,1-.2-.7,1.884,1.884,0,0,1,.2-.8,1.024,1.024,0,0,1,.6-.5,2,2,0,0,1,.9-.2,1.594,1.594,0,0,1,1.2.4,1.656,1.656,0,0,1,.5,1.2H58a.6.6,0,0,0-.3-.6.845.845,0,0,0-.6-.2,1.421,1.421,0,0,0-.6.2.52.52,0,0,0-.2.4.758.758,0,0,0,.2.4,2.192,2.192,0,0,0,.8.3,3.362,3.362,0,0,1,1,.4,1.024,1.024,0,0,1,.5.6,1.884,1.884,0,0,1,.2.8,1.594,1.594,0,0,1-.4,1.2,1.978,1.978,0,0,1-1.4.5C56.1,73.6,55.5,73,55.4,71.7Z"/><path class="b" d="M60.9,73.5V68h.9v5.5Z"/><path class="b" d="M68,73.5H67l-.4-1.2H64.8l-.4,1.2h-1L65.2,68h1Zm-1.7-2.2-.6-2-.6,2Z"/><path class="b" d="M3.2,66.4V60.9h.9v2.5l1.8-2.5H7.1L5.5,63l1.8,3.4H6.1L4.9,63.8l-.7.9v1.7Z"/><path class="b" d="M8.9,66.4V60.9h.9v4.5h2.3v.9H8.9Z"/><path class="b" d="M13.9,66.4V60.9h.9v5.5Z"/><path class="b" d="M16.8,66.4V60.9h1.9a3.42,3.42,0,0,1,1.1.1,1.205,1.205,0,0,1,.5.5,2,2,0,0,1,.2.9,1.493,1.493,0,0,1-.3,1,1.346,1.346,0,0,1-.9.5,1.205,1.205,0,0,1,.5.5c.1.2.3.5.5.9l.5,1.1H19.7L19,65.2a3.775,3.775,0,0,0-.5-.8c-.1-.1-.2-.2-.3-.2a2.034,2.034,0,0,0-.5-.1h-.2v2.3h-.7Zm.9-3.2h.7c.4,0,.7,0,.8-.1.1,0,.2-.1.3-.2a.6.6,0,0,0,.1-.4c0-.2,0-.3-.1-.4s-.2-.2-.3-.2H17.8v1.3Z"/><path class="b" d="M22.5,66.4V60.9h.9v5.5Z"/><path class="b" d="M25.5,66.4V60.9h.9l1.9,3.7V60.9H29v5.5h-.9l-1.8-3.6v3.6h-.8Z"/><path class="b" d="M33.3,64.3v-.9h2v2.2a5.547,5.547,0,0,1-.8.6,2.279,2.279,0,0,1-1.1.3,2.663,2.663,0,0,1-1.2-.3,2.089,2.089,0,0,1-.8-1,3.653,3.653,0,0,1-.3-1.5,4.146,4.146,0,0,1,.3-1.6,2.723,2.723,0,0,1,.8-1,2.133,2.133,0,0,1,1.2-.3,1.844,1.844,0,0,1,1.3.4,2.281,2.281,0,0,1,.6,1.2l-.9.2a1.612,1.612,0,0,0-.4-.7.735.735,0,0,0-.6-.2,1.05,1.05,0,0,0-.9.5,2.226,2.226,0,0,0-.5,1.3,2.076,2.076,0,0,0,.4,1.5.975.975,0,0,0,.9.4,1.268,1.268,0,0,0,.6-.1,2.186,2.186,0,0,0,.5-.3v-.7Z"/><path class="b" d="M40,60.8h1.8a2.509,2.509,0,0,1,1,.1.821.821,0,0,1,.5.5,1.884,1.884,0,0,1,.2.8,1.445,1.445,0,0,1-.2.7,1.205,1.205,0,0,1-.5.5,1.024,1.024,0,0,1,.6.5,1.077,1.077,0,0,1,.2.8,1.689,1.689,0,0,1-.3,1,1.157,1.157,0,0,1-.7.5c-.2,0-.6.1-1.3.1H40Zm.9,1V63h1.3a.52.52,0,0,0,.4-.2.6.6,0,0,0,.1-.4c0-.2,0-.3-.1-.4s-.2-.2-.3-.2H40.9Zm0,2.2v1.5h.8c.4,0,.6,0,.7-.1.1,0,.2-.1.3-.2a.6.6,0,0,0,.1-.4c0-.2,0-.3-.1-.4s-.2-.2-.3-.2a5.384,5.384,0,0,0-.8-.1h-.7Z"/><path class="b" d="M45.8,66.4V60.9h3.4v.9H46.8V63h2.3v.9H46.8v1.5h2.5v.9H45.8Z"/><path class="b" d="M51.1,66.4V60.9H53a3.42,3.42,0,0,1,1.1.1,1.205,1.205,0,0,1,.5.5,2,2,0,0,1,.2.9,1.493,1.493,0,0,1-.3,1,1.346,1.346,0,0,1-.9.5,1.205,1.205,0,0,1,.5.5c.1.2.3.5.5.9l.5,1.1H54l-.7-1.2a3.775,3.775,0,0,0-.5-.8c-.1-.1-.2-.2-.3-.2a2.034,2.034,0,0,0-.5-.1h0v2.3h-.9Zm.9-3.2h.7c.4,0,.7,0,.8-.1.1,0,.2-.1.3-.2a.6.6,0,0,0,.1-.4c0-.2,0-.3-.1-.4s-.2-.2-.3-.2H52Z"/><path class="b" d="M58.5,60.8h.9v3.5a3.918,3.918,0,0,1-.2,1.3,1.024,1.024,0,0,1-.5.6,1.884,1.884,0,0,1-.8.2,1.159,1.159,0,0,1-1-.4,2.331,2.331,0,0,1-.4-1.4l.9-.1a5.638,5.638,0,0,0,.1.7c.1.2.2.3.4.3a.52.52,0,0,0,.4-.2c.1-.1.1-.4.1-.9V60.8Z"/><path class="b" d="M65.6,66.4h-1l-.4-1.2H62.4L62,66.4H61l1.8-5.5h1Zm-1.7-2.2-.6-2-.6,2Z"/><path class="b" d="M67.2,66.4V60.9h.9L70,64.6V60.9h.9v5.5H70l-1.8-3.6v3.6h-1Z"/><path class="b" d="M75.1,64.3v-.9h2v2.2a5.547,5.547,0,0,1-.8.6,2.016,2.016,0,0,1-1.1.3,2.663,2.663,0,0,1-1.2-.3,2.089,2.089,0,0,1-.8-1,3.653,3.653,0,0,1-.3-1.5,4.145,4.145,0,0,1,.3-1.6,2.089,2.089,0,0,1,.8-1,2.133,2.133,0,0,1,1.2-.3,1.844,1.844,0,0,1,1.3.4,2.281,2.281,0,0,1,.6,1.2l-.9.2a1.612,1.612,0,0,0-.4-.7.735.735,0,0,0-.6-.2,1.05,1.05,0,0,0-.9.5,2.588,2.588,0,0,0-.4,1.4,2.076,2.076,0,0,0,.4,1.5.975.975,0,0,0,.9.4,1.268,1.268,0,0,0,.6-.1,2.186,2.186,0,0,0,.5-.3v-.7H75.1Z"/><path class="b" d="M79,66.4V60.9h.9v2.5l1.8-2.5H83L81.3,63l1.8,3.4H81.9l-1.2-2.6-.7.9v1.7Z"/><path class="b" d="M88.8,66.4h-1l-.4-1.2H85.6l-.4,1.2h-1L86,60.9h1Zm-1.7-2.2-.6-2-.6,2Z"/><path class="b" d="M44.5,49.5c.3-.5.7-1.1,1-1.6a.454.454,0,0,0,0-.5l-.1-.1c-.6-.9-1.1-1.8-1.7-2.7,0-.1-.1-.1-.1,0-.4.7-.9,1.4-1.3,2.1a6.726,6.726,0,0,1-.7,1.1c-.3.4-.5.8-.8,1.2-.2.3-.4.7-.6,1a13.028,13.028,0,0,1-1,1.5.47.47,0,0,1-.8.1c-.1-.1-.2-.3-.3-.4-.4-.6-.8-1.2-1.2-1.9l-1.5-2.4c-.4-.6-.8-1.3-1.2-1.9a9.13,9.13,0,0,1-.8-1.3c-.2-.3-.3-.5-.5-.8,0-.1,0-.1-.1-.2l-.9-1.5c-.4-.7-.9-1.3-1.3-2a2.3,2.3,0,0,1-.4-1.4,2.822,2.822,0,0,1,.4-1.5,10.54,10.54,0,0,1,.7-1.1c.6-.9,1.2-1.8,1.7-2.7.5-.7.9-1.5,1.4-2.2l1.5-2.4c.4-.6.8-1.3,1.2-1.9l1.2-1.8.1-.1a.375.375,0,0,1,.6,0l.1.1c.1.2.2.3.3.5s.3.4.4.6c.1.1.2.1.2,0,.1-.1.1-.2.2-.3.5-.9,1.1-1.7,1.6-2.6a.454.454,0,0,0,0-.5c-.4-.6-.8-1.3-1.2-1.9-.1-.2-.2-.3-.3-.5a2.036,2.036,0,0,0-1.6-.9,1.7,1.7,0,0,0-1.6.9c-.1.1-.1.2-.2.3-.4.6-.7,1.2-1.1,1.8a22.631,22.631,0,0,1-1.3,2c-.4.6-.7,1.1-1.1,1.7a13.028,13.028,0,0,1-1,1.5c-.6.9-1.2,1.8-1.7,2.7-.6.9-1.2,1.9-1.8,2.8-.3.6-.7,1.1-1,1.7a14.8,14.8,0,0,0-.8,1.3c-.1.3-.3.7-.4,1v.2a6.052,6.052,0,0,0-.2,1.5,4.048,4.048,0,0,0,.6,2.4l.3.6c.4.8.9,1.5,1.4,2.3A16.288,16.288,0,0,0,29.9,45c.4.6.8,1.3,1.2,1.9s.8,1.3,1.2,1.9.8,1.3,1.2,1.9.8,1.2,1.2,1.9c.4.6.8,1.3,1.2,1.9l.9,1.5c0,.1.1.1.1.2a2.336,2.336,0,0,0,.7.7,2.39,2.39,0,0,0,.9.3,1.486,1.486,0,0,0,.9-.2,2.178,2.178,0,0,0,.9-.7c0-.1.1-.1.1-.2.2-.4.5-.8.7-1.2.5-.9,1.1-1.7,1.6-2.6C43.4,51.2,44,50.3,44.5,49.5Z"/><path class="b" d="M39.2,27.6c-.6,1-1.3,2-1.9,3a28.964,28.964,0,0,1-1.9,2.9c-.4.6-.8,1.3-1.2,1.9-.2.4-.5.8-.7,1.2a2.428,2.428,0,0,0,.1,2.2c.3.5.6,1,1,1.6.1.1.2.3.3.4l.6.9a6.071,6.071,0,0,0,.7,1c.3.5.6.9.8,1.3a6.726,6.726,0,0,0,.7,1.1,14.8,14.8,0,0,1,.8,1.3,3.508,3.508,0,0,1,.5.8,3.508,3.508,0,0,1,.5.8c.2.3.3.5.5.8,0,.1.1.1.1,0l.1-.1.6-.9c.4-.6.8-1.3,1.2-1.9a.188.188,0,0,0,0-.3c-.4-.7-.8-1.3-1.2-2-.6-.9-1.1-1.8-1.7-2.7-.5-.9-1.1-1.7-1.6-2.6a1.1,1.1,0,0,1-.1-1.1c.1-.3.3-.5.4-.8.7-1.1,1.4-2.2,2-3.2a22.631,22.631,0,0,1,1.3-2,9.993,9.993,0,0,0,.8-1.4c.2-.4.5-.8.7-1.2a.1.1,0,0,0,.1-.1c.6-1,1.3-2,1.9-3,.3-.6.7-1.1,1-1.7.1-.1.1-.2.2-.3a.3.3,0,0,1,.4,0c.2.1.2.3.3.4a4.053,4.053,0,0,1,.5.9.187.187,0,0,0,.3,0l.1-.1c.1-.2.2-.3.3-.5.5-.7.9-1.5,1.4-2.2a.638.638,0,0,0,0-.6,14.8,14.8,0,0,1-.8-1.3,10.54,10.54,0,0,0-.7-1.1c-.1-.2-.3-.3-.4-.4a.758.758,0,0,0-.4-.2,1.7,1.7,0,0,0-.7-.1,1.893,1.893,0,0,0-1.6.9l-.1.1c-.6.9-1.1,1.8-1.7,2.7-.5.9-1.1,1.7-1.6,2.6C40.4,25.6,39.8,26.6,39.2,27.6Z"/><path class="b" d="M52.8,47.7c.5-.9,1.1-1.8,1.6-2.6.3-.6.7-1.1,1-1.7L56.9,41c.2-.3.4-.7.6-1s.4-.7.6-1a3.022,3.022,0,0,0,.5-1.6,1.421,1.421,0,0,0-.2-.6,7.459,7.459,0,0,0-.7-1.2c-.3-.6-.7-1.1-1-1.6l-1.5-2.4a4.348,4.348,0,0,1-.4-.7.1.1,0,0,0-.1-.1c-.1-.2-.2-.3-.3-.5-.5-.9-1.1-1.7-1.6-2.6-.3-.4-.5-.8-.8-1.2q-.15-.3-.3,0c-.5.7-.9,1.5-1.4,2.2-.1.2-.2.3-.3.5,0,.1-.1.1-.1.2a.188.188,0,0,0,0,.3,8.794,8.794,0,0,1,.6,1c.3.5.6.9.9,1.4.2.4.5.8.7,1.2a6.071,6.071,0,0,0,.7,1,9.13,9.13,0,0,1,.8,1.3c.3.5.6.9.9,1.4a1.421,1.421,0,0,1,.2.6v.2h0a.6.6,0,0,1-.1.4,4.348,4.348,0,0,1-.4.7c-.2.4-.5.8-.7,1.2a14.8,14.8,0,0,0-.8,1.3,6.071,6.071,0,0,1-.7,1c-.2.3-.4.7-.6,1a14.8,14.8,0,0,0-.8,1.3,5.582,5.582,0,0,0-.5.8c-.2.3-.3.5-.5.8s-.4.7-.6,1a14.8,14.8,0,0,0-.8,1.3c-.3.4-.5.8-.8,1.2-.2.4-.5.7-.7,1.1-.2.3-.3.5-.5.8s-.5.4-.7.1a1.612,1.612,0,0,1-.4-.7c-.1-.2-.2-.3-.3-.5-.1-.1-.1-.1-.2,0a8.793,8.793,0,0,0-.6,1,9.223,9.223,0,0,0-.5.8c-.2.3-.4.7-.6,1a.454.454,0,0,0,0,.5c.2.4.5.8.7,1.2a10.907,10.907,0,0,1,.6,1.1v.1a1.7,1.7,0,0,0,.6.6.1.1,0,0,1,.1.1c.2.1.3.2.5.2h1l.6-.3a1.024,1.024,0,0,0,.5-.6c.6-1,1.2-2,1.8-2.9.4-.6.8-1.3,1.2-1.9C51.4,50,52.1,48.9,52.8,47.7Z"/><path class="b" d="M51.5,38.3c.1-.2.2-.3.2-.5v-.2c0-.1-.1-.3-.1-.4-.5-.7-.9-1.5-1.4-2.2-.3-.5-.6-.9-.9-1.4l-.9-1.5a4.053,4.053,0,0,1-.5-.9c-.1-.1-.1-.2-.2-.3-.4-.6-.8-1.3-1.2-1.9s-.7-1.1-1.1-1.7c-.2-.3-.3-.5-.5-.8-.1-.1-.1-.1-.2,0-.3.5-.7,1-1,1.6a10.54,10.54,0,0,1-.7,1.1v.1c-.2.2-.2.3-.1.5l.6.9a9.13,9.13,0,0,1,.8,1.3l.9,1.5c.2.3.4.7.6,1,.2.4.5.7.7,1.1.4.6.7,1.1,1.1,1.7a.608.608,0,0,1,0,.8l-.1.1c-.4.6-.7,1.1-1.1,1.7a.188.188,0,0,0,0,.3c.3.4.5.8.8,1.2.2.4.5.7.7,1.1a2.092,2.092,0,0,0,.4.6c.1.1.1.1.2,0h0a8.793,8.793,0,0,0,.6-1c.4-.7.8-1.3,1.2-2A9.391,9.391,0,0,0,51.5,38.3Z"/><path class="b" d="M45.2,36c.1-.2.3-.5.4-.7v-.1a.1.1,0,0,0-.1-.1c-.4-.7-.8-1.3-1.2-2l-.6-.9c-.1-.1-.1-.1-.2,0-.2.3-.4.7-.7,1.1a10.54,10.54,0,0,1-.7,1.1,14.8,14.8,0,0,0-.8,1.3l-.9,1.5a.9.9,0,0,0,0,1l.6.9c.3.4.5.8.8,1.2a6.726,6.726,0,0,0,.7,1.1c.1.2.2.3.3.5.2.2.3.5.5.7.2.3.3.5.5.8s.4.7.6,1a13.028,13.028,0,0,0,1,1.5c.3.5.6,1,.9,1.4a13.028,13.028,0,0,0,1,1.5c.1.1.1.1.2,0a8.793,8.793,0,0,0,.6-1c.4-.6.8-1.2,1.2-1.9a.3.3,0,0,0,0-.4,10.54,10.54,0,0,0-.7-1.1c-.4-.6-.8-1.2-1.2-1.9l-1.5-2.4c-.5-.7-.9-1.5-1.4-2.2a.638.638,0,0,1,0-.6A5.623,5.623,0,0,1,45.2,36Z"/><path class="b" d="M65.3,37.5a1.949,1.949,0,0,0-.1-.8c0-.2-.1-.3-.1-.5-.1-.4-.3-.8-.4-1.2a17.394,17.394,0,0,0-1.1-1.8l-2.1-3.3c-.5-.8-1-1.5-1.4-2.3a13.028,13.028,0,0,0-1-1.5c-.2-.3-.4-.7-.6-1,0-.1,0-.1-.1-.2l-.9-1.5c-.5-.8-1-1.6-1.5-2.3l-.9-1.5c-.1-.2-.2-.3-.3-.5a2.127,2.127,0,0,0-1.5-.7,1.936,1.936,0,0,0-1.7,1l-.3.6c-.5.8-1,1.6-1.6,2.5s-1.1,1.8-1.7,2.6c-.5.8-1,1.6-1.5,2.3a.446.446,0,0,0,0,.5,3.508,3.508,0,0,1,.5.8c.3.6.7,1.1,1,1.7.1.1.1.2.2.3s.1.1.2,0c.1-.2.3-.4.4-.6a1.612,1.612,0,0,0,.4-.7L50.7,27c.5-.9,1.1-1.7,1.6-2.6.1-.2.3-.5.4-.7a.385.385,0,0,1,.7,0c0,.1.1.1.1.2.4.6.8,1.3,1.2,1.9.6.9,1.1,1.8,1.7,2.7.1.1.1.3.3.4.1.2.3.4.4.6.3.4.5.8.8,1.2.3.5.6,1,.9,1.4l.9,1.5.9,1.5c.2.2.3.5.5.7a2.947,2.947,0,0,1,.5,1.3,2.462,2.462,0,0,1-.1,1.2,3.7,3.7,0,0,1-.5,1.1,6.726,6.726,0,0,1-.7,1.1c-.2.3-.4.7-.6,1A5.067,5.067,0,0,1,59,43l-.9,1.5a8.342,8.342,0,0,1-.8,1.2c-.2.4-.5.8-.7,1.2-.2.3-.4.7-.6,1s-.3.5-.5.8c-.3.6-.7,1.1-1,1.7-.2.4-.5.7-.7,1.1-.1.2-.2.3-.4.3h-.3c-.2-.1-.2-.2-.3-.4l-.6-.9c-.1-.1-.1-.1-.2,0a2.186,2.186,0,0,1-.3.5c-.3.5-.6.9-.9,1.4a2.186,2.186,0,0,1-.3.5c-.1.2-.2.3-.3.5v.2a.758.758,0,0,1,.2.4c.2.3.3.5.5.8a2.186,2.186,0,0,0,.3.5,2.092,2.092,0,0,0,.4.6.1.1,0,0,0,.1.1,1.344,1.344,0,0,0,.7.6.349.349,0,0,1,.2.1c.1,0,.2.1.3.1h.7a.367.367,0,0,0,.3-.1c.2,0,.3-.1.5-.2a2.181,2.181,0,0,0,.5-.4c.1-.1.2-.2.2-.3.2-.4.5-.7.7-1.1.4-.7.9-1.4,1.3-2.1.6-.9,1.2-1.9,1.8-2.8.4-.7.8-1.3,1.2-2,.5-.8.9-1.5,1.4-2.3.4-.7.9-1.4,1.3-2.1a26.06,26.06,0,0,0,1.7-2.8,3.506,3.506,0,0,0,.6-1.4,6.373,6.373,0,0,0,.2-.7c0-.3.1-.5.1-.8v-.2C65.3,37.6,65.3,37.5,65.3,37.5Z"/></svg>