<svg xmlns="http://www.w3.org/2000/svg" width="48.027" height="56.575" viewBox="0 0 48.027 56.575"><defs><style>.a{fill:#e9b021;}.b{fill:#c4c4c4;}</style></defs><g transform="translate(-10.525 -6.325)"><path class="a" d="M41.2,51.5a.52.52,0,0,0-.4.2,9.05,9.05,0,0,1-2.3,1.8,6.711,6.711,0,0,1-3.3.7A6.661,6.661,0,0,1,29.9,52a10.989,10.989,0,0,1-2.5-6.1H37.9a.5.5,0,0,0,0-1H27.3V42.1H39.6a.5.5,0,1,0,0-1H27.4A10.691,10.691,0,0,1,30,34.9a7.677,7.677,0,0,1,5.8-2.3,5.547,5.547,0,0,1,2.8.7,10.991,10.991,0,0,1,1.8,1.4.764.764,0,0,0,.5.2.645.645,0,0,0,.6-.6.764.764,0,0,0-.2-.5h0a9.351,9.351,0,0,0-1.9-1.4,6.756,6.756,0,0,0-3.5-.9,8.729,8.729,0,0,0-3.7.7,9.53,9.53,0,0,0-3,1.9,8.125,8.125,0,0,0-2.1,3A16.014,16.014,0,0,0,26,41l-2.7.1h0a.4.4,0,0,0,0,.8h2.5v2.8l-2.6.1h0a.4.4,0,0,0,0,.8H26a11.892,11.892,0,0,0,3,6.8,8,8,0,0,0,6.2,2.5,8.158,8.158,0,0,0,4-.9,8.758,8.758,0,0,0,2.4-1.9.758.758,0,0,0,.2-.4C41.8,51.8,41.6,51.5,41.2,51.5Z"/><path class="b" d="M55.4,56.8c0-.1-.1-.1,0,0-.2-.1-.3-.2-.5-.2-.5-.1-.7-.3-.6-1.2A41.164,41.164,0,0,0,54.5,41c-1.4-8.1-4.8-13.1-11.3-16.7a.652.652,0,1,0-.7,1.1c6.2,3.4,9.3,8.2,10.7,15.8a38.913,38.913,0,0,1-.2,14c-.3,1.4.2,2.4,1.5,2.7a.1.1,0,0,1,.1.1c.1,0,.1.1.2.1,1.3.6,2,1,2.2,1.4a4.571,4.571,0,0,1,.4,2.7h-46v-1c0-.8.3-1.1.3-1.8a1.38,1.38,0,0,1,.4-.3l2.4-1.2.8-.4a.822.822,0,0,0,.4-.6c-.1-1.1-.2-2.1-.3-3.2-.2-2.3-.4-4.5-.4-6.8,0-6.5,1.6-11.8,4.9-16.2h0c5.6-8.8,20.2-8.8,20.3-8.8a1.981,1.981,0,0,0,1.8-1,1.7,1.7,0,0,0-.2-1.8c-.2-.3-.2-.3.1-.8,1.3-2.1,2.5-4.2,3.8-6.3L47,9.9a.651.651,0,0,0-.2-.9c-2-1.4-4.2-2.6-6.8-.7-.5.3-1.2.6-2.4-.4-2.4-2.1-4.1-2.1-6.5,0-1.2,1-1.8.8-2.3.5-2.6-1.8-4.9-.7-6.9.7a.651.651,0,0,0-.2.9l1.2,2c1.3,2.2,2.6,4.2,3.8,6.4a.652.652,0,1,0,1.1-.7c-1.2-2.1-2.5-4.2-3.8-6.4l-.9-1.5c1.8-1.2,3.2-1.6,4.9-.4.8.6,2.2.9,3.9-.5,1.9-1.7,2.9-1.7,4.8,0,1.7,1.5,3.1,1.1,4,.5,1.6-1.1,3-.8,4.9.4L44.9,11c-1.3,2.1-2.5,4.2-3.8,6.3a1.744,1.744,0,0,0-.1,2.2.44.44,0,0,1,.1.5.914.914,0,0,1-.7.3A38.235,38.235,0,0,0,32,21.4c-6,1.5-10.5,4.4-13,8.3h0c-3.4,4.6-5.1,10.1-5.1,16.9,0,2.3.2,4.6.4,6.9a24.519,24.519,0,0,1,.2,2.7l-.4.2-2.4,1.2a2.113,2.113,0,0,0-1.1,1.3,9.637,9.637,0,0,0,0,2.4v.9a.684.684,0,0,0,.7.7H57.8a.576.576,0,0,0,.6-.6C58.8,58.6,58.6,58.3,55.4,56.8Z"/></g></svg>