<svg xmlns="http://www.w3.org/2000/svg" width="68.906" height="69" viewBox="0 0 68.906 69"><defs><style>.a{fill:#c4c4c4;}.b{fill:#e9b021;}.c{fill:none;stroke:#fff;stroke-miterlimit:10;opacity:0.5;}</style></defs><path class="a" d="M31.8,52.5h8a17.961,17.961,0,0,0,.7-35.9v-.1h-25a.56.56,0,0,0-.5.6c0,.3.2.4.5.4h24A17.157,17.157,0,0,1,56.6,34.6a16.965,16.965,0,0,1-17,16.9H27.4a.472.472,0,0,0-.5.5h0a.472.472,0,0,0,.5.5Z"/><path class="a" d="M27.8,35.1a.645.645,0,0,0-.6-.6H7.2a.645.645,0,0,0-.6.6h0c0,.3.7.4,1,.4h20C27.8,35.5,27.8,35.4,27.8,35.1Z"/><path class="a" d="M33.1,43.8c0-.3-.3-.3-.6-.3h-16c-.3,0-.7,0-.7.3h0a.645.645,0,0,0,.6.6h16A.563.563,0,0,0,33.1,43.8Z"/><path class="a" d="M10.5,25.5h20c.3,0,.2.1.2-.2s.1-.8-.2-.8h-20c-.3,0-1.1.4-1.1.8h0C9.4,25.6,10.1,25.5,10.5,25.5Z"/><path class="a" d="M24.6,11.5H24a.645.645,0,0,0-.6.6h0c0,.3-.2.3.2.3h16l.1-1-15.1.1Z"/><path class="a" d="M39.6,11.5v.9c11.9.1,21.6,10.2,21.6,22.1A21.982,21.982,0,0,1,39.5,56.4a3.751,3.751,0,0,1,.1,1,22.95,22.95,0,0,0,0-45.9Z"/><path class="a" d="M39.6,12.4Z"/><path class="a" d="M31.5,56.5c-.4,0-1,0-1,.4a.576.576,0,0,0,.6.6h8.4l-.1-1Z"/><path class="a" d="M39.5,56.4Z"/><path class="b" d="M50.9,25.5h0L39.1,33.8a.7.7,0,0,0-.2.4,1.213,1.213,0,0,0,.1.5l5.4,5.8.1.1h0v-.1l-3.8-6.1,10.2-8.9Z"/><path class="c" d="M65.7,68.5H3.3A2.8,2.8,0,0,1,.5,65.7V3.3A2.8,2.8,0,0,1,3.3.5H65.6a2.8,2.8,0,0,1,2.8,2.8V65.6A2.738,2.738,0,0,1,65.7,68.5Z"/></svg>