<svg xmlns="http://www.w3.org/2000/svg" width="149.167" height="37.663" viewBox="0 0 149.167 37.663"><defs><style>.a{fill:#f6ba18;}.b{fill:#fff;}</style></defs><g transform="translate(0 0.006)"><path class="a" d="M71.394,16.459,69.152,28.226H64l2.017-10.759a12.216,12.216,0,0,0,.336-2.914c0-2.241-.785-4.035-3.362-4.035a5.717,5.717,0,0,0-3.923,1.905A11.519,11.519,0,0,0,57.161,17.8L55.255,28.114H50.1L54.135,6.372h4.819l-.336,1.905A9.588,9.588,0,0,1,65.006,5.7a7.276,7.276,0,0,1,5.94,3.026,7.223,7.223,0,0,1,1.009,4.035C71.73,14.105,71.618,15.226,71.394,16.459Z" transform="translate(6.048 0.689)"/><path class="a" d="M108.066,19.7H91.255a3.387,3.387,0,0,0,.56,1.793,5.032,5.032,0,0,0,4.707,2.69,6.414,6.414,0,0,0,5.492-2.8h5.492a14.015,14.015,0,0,1-11.88,7.509c-5.492,0-9.526-3.7-9.526-9.3A14.228,14.228,0,0,1,99.885,5.8c5.492,0,9.3,3.7,9.3,9.19A13.772,13.772,0,0,1,108.066,19.7Zm-9.078-9.19a7.64,7.64,0,0,0-7.061,4.931h11.992v-.224C103.919,12.3,102.014,10.507,98.988,10.507Z" transform="translate(10.393 0.701)"/><path class="a" d="M123.3,12.412h-5.043c0-1.121-.56-1.905-1.681-1.905a2.347,2.347,0,0,0-2.354,2.241c0,2.466,8.293,1.457,8.293,7.285A9.318,9.318,0,0,1,113.436,29c-3.81,0-6.836-2.129-6.836-6.164a5.457,5.457,0,0,1,.112-1.345h5.267c.112,1.569.56,2.8,2.354,2.8a2.75,2.75,0,0,0,2.8-2.69c0-2.914-8.181-1.569-8.181-7.733,0-4.483,4.259-8.069,8.629-8.069a5.63,5.63,0,0,1,5.94,5.6A3.272,3.272,0,0,0,123.3,12.412Z" transform="translate(12.868 0.701)"/><path class="a" d="M133.531,11.867h-3.138L127.255,28.79H122.1l3.138-16.923H122.66l.9-4.595h2.578l.56-2.8A5.3,5.3,0,0,1,131.962.1h.672L131.29,7.273h3.138Z" transform="translate(14.739 0.013)"/><path class="a" d="M50.593,11.88h0L47.455,28.8H42.3L45.438,11.88h0l.9-4.595h0l.56-2.8A5.2,5.2,0,0,1,52.05,0h.672L51.378,7.173h0Z" transform="translate(5.106 0.001)"/><path class="a" d="M75.392,7.173H69.9l4.707,21.742h4.931L91.306,5.044h35.751A5.469,5.469,0,0,0,132.436,0H91.081a5.362,5.362,0,0,0-5.267,3.7l-7.733,16.25s-.224.336-.224,0Z" transform="translate(8.438)"/><path class="b" d="M23.759,24.18c-1.009,5.491-4.147,9.974-9.526,11.88a13.026,13.026,0,0,1-4.707.9C4.931,36.956.9,34.49,0,29.783H5.94a5.43,5.43,0,0,0,4.931,2.466c3.922,0,6.948-3.026,7.845-6.724l-.112-.112a10.207,10.207,0,0,1-7.733,3.474,9.142,9.142,0,0,1-9.19-9.414C1.681,12.412,7.957,5.8,15.018,5.8c2.578,0,5.043.9,6.276,3.362h.112l.56-2.69h5.043C25.888,12.412,24.768,18.24,23.759,24.18ZM14.681,10.507c-4.259,0-7.733,4.035-7.733,8.069a5.207,5.207,0,0,0,5.379,5.491c4.147,0,7.621-4.147,7.621-8.069A5.245,5.245,0,0,0,14.681,10.507Z" transform="translate(0 0.701)"/><path class="b" d="M36.028,17.819,42.752,28.8h-6.5L30.761,18.716h0L28.855,28.8H23.7L29.079,0h5.155l-3.25,17.371H31.1l8.854-10.2h5.94Z" transform="translate(2.861 0.001)"/></g></svg>