<svg xmlns="http://www.w3.org/2000/svg" xmlns:xlink="http://www.w3.org/1999/xlink" width="60" height="60" viewBox="0 0 60 60"><defs><style>.a{fill:#9d9d9d;}.b{clip-path:url(#a);}.c{fill:#fff;}</style><clipPath id="a"><rect width="40" height="40"/></clipPath></defs><path class="a" d="M30,0A30,30,0,1,0,60,30,29.992,29.992,0,0,0,30,0Z"/><g transform="translate(10 10)"><g class="b"><path class="c" d="M35.171,16.5A18.664,18.664,0,0,0,19.519,45.341l-1.907,7.071,6.912-1.827A18.7,18.7,0,1,0,35.171,16.5Zm0,30.113a3.394,3.394,0,0,1-3.258-3.337,3.338,3.338,0,1,1,6.674,0A3.278,3.278,0,0,1,35.171,46.613Zm1.669-8.66a1.321,1.321,0,0,1-1.112.795h-.953a1.2,1.2,0,0,1-1.112-.795c-.238-.715-1.748-10.011-1.986-13.428a.8.8,0,0,1,.795-.795h5.482a.748.748,0,0,1,.795.795C38.509,28.1,37.078,37.078,36.84,37.952Z" transform="translate(-15.171 -15.171)"/></g></g></svg>