<svg xmlns="http://www.w3.org/2000/svg" width="44.026" height="55" viewBox="0 0 44.026 55"><defs><style>.a{fill:#c4c4c4;}.b{fill:#e9b021;}</style></defs><g transform="translate(-878.987 -2941)"><g transform="translate(866.5 2934)"><path class="a" d="M56.1,15l-.1-.5-.5-.1A72.838,72.838,0,0,1,40.3,9.9a50.1,50.1,0,0,1-5.5-2.7L34.5,7l-.4.2a50.1,50.1,0,0,1-5.5,2.7,75.2,75.2,0,0,1-15.2,4.5l-.5.1V15c0,.1-.5,5.3-.4,11.5.2,8.4,1.4,14.4,3.7,17.9C20.2,50.8,27,56,31,59.1c1.3,1,2.4,1.8,3,2.4l.5.5.5-.5c.5-.5,1.5-1.2,2.7-2.2,4.1-3.2,11.1-8.5,15.1-14.9,2.2-3.5,3.5-9.6,3.7-17.9C56.6,20.3,56.1,15.1,56.1,15ZM51.7,43.7C47.5,49.6,41,55.1,36.9,58.2c-1,.8-1.8,1.4-2.4,1.9-.6-.6-1.5-1.2-2.6-2.1-4-3.1-10.5-8.3-14.5-14.3-4.9-7.4-4-25.1-3.1-28a72.412,72.412,0,0,0,20.3-7,66.053,66.053,0,0,0,20.3,7C55.7,19.1,56.7,36.5,51.7,43.7Z"/></g><path class="b" d="M20.7,33.8a.785.785,0,0,1,1.1,0L30.2,42,47,25.1a.778.778,0,1,1,1.1,1.1l-17.9,18-9.5-9.3" transform="translate(866.5 2934)"/></g></svg>